<svg xmlns="http://www.w3.org/2000/svg" viewBox="0 0 200 155.56">
    <path d="M198.2 100.13v-2.4h-.63l-.73 1.65-.72-1.65h-.62v2.4h.44v-1.81l.68 1.56h.46l.67-1.56v1.8zm-3.97 0v-2h.8v-.4h-2.05v.4h.8v2z" fill="#0099df"/>
    <path d="M127.14 110.44H73.07V13.25h54.07z" fill="#6c6bbd"/>
    <path d="M76.53 61.84a61.7 61.7 0 0 1 23.6-48.6 61.8 61.8 0 0 0-100 48.6 61.8 61.8 0 0 0 100 48.6 61.7 61.7 0 0 1-23.6-48.6" fill="#eb001b"/>
    <path d="M200.08 61.84a61.8 61.8 0 0 1-100 48.6c14.37-11.33 23.6-28.89 23.6-48.6s-9.23-37.28-23.6-48.6a61.8 61.8 0 0 1 100 48.6" fill="#0099df"/>
    <path d="M145.38 137.88c.72 0 1.75.14 2.54.45l-1.1 3.37a5.78 5.78 0 0 0-2.23-.42c-2.34 0-3.5 1.51-3.5 4.22v9.2h-3.58v-16.4h3.54v1.99a4.84 4.84 0 0 1 4.33-2.4m-13.2 3.67h-5.83v7.41c0 1.65.58 2.75 2.37 2.75.92 0 2.09-.31 3.15-.93l1.03 3.06a8.37 8.37 0 0 1-4.46 1.27c-4.22 0-5.7-2.27-5.7-6.08v-7.48h-3.33v-3.26h3.33v-4.98h3.6v4.98h5.84zm-45.7 3.5c.38-2.37 1.82-3.99 4.37-3.99 2.3 0 3.77 1.45 4.15 3.99zm12.23 1.44c-.04-5.12-3.2-8.62-7.8-8.62-4.8 0-8.17 3.5-8.17 8.62 0 5.22 3.5 8.61 8.42 8.61 2.47 0 4.73-.61 6.72-2.3l-1.75-2.64a7.8 7.8 0 0 1-4.77 1.72c-2.3 0-4.4-1.07-4.9-4.02h12.18c.03-.45.07-.89.07-1.37m15.69-4.01c-1-.63-3.02-1.42-5.12-1.42-1.95 0-3.12.73-3.12 1.93 0 1.1 1.23 1.4 2.78 1.61l1.68.24c3.57.52 5.73 2.03 5.73 4.91 0 3.13-2.74 5.36-7.48 5.36-2.68 0-5.15-.69-7.1-2.13l1.67-2.78a8.75 8.75 0 0 0 5.47 1.71c2.43 0 3.74-.72 3.74-1.99 0-.92-.93-1.44-2.89-1.71l-1.68-.24c-3.67-.52-5.67-2.17-5.67-4.84 0-3.26 2.68-5.26 6.84-5.26 2.6 0 4.98.59 6.69 1.72zm44.03-1.22a5.4 5.4 0 0 0-2.05.39 4.91 4.91 0 0 0-2.72 2.75c-.26.65-.4 1.37-.4 2.15 0 .78.14 1.49.4 2.14a4.96 4.96 0 0 0 4.77 3.14c.73 0 1.42-.13 2.04-.39a4.9 4.9 0 0 0 2.74-2.75c.27-.65.4-1.36.4-2.14s-.13-1.5-.4-2.15a5 5 0 0 0-4.78-3.14m0-3.39a9.1 9.1 0 0 1 3.53.67 8.35 8.35 0 0 1 4.67 4.57c.45 1.05.68 2.2.68 3.44s-.23 2.38-.67 3.44a8.36 8.36 0 0 1-4.68 4.57c-1.08.44-2.26.66-3.53.66s-2.45-.22-3.54-.66a8.69 8.69 0 0 1-2.8-1.82 8.51 8.51 0 0 1-2.52-6.2 8.45 8.45 0 0 1 5.32-8 9.24 9.24 0 0 1 3.54-.67m-92.8 8.62c0-2.88 1.89-5.25 4.97-5.25 2.96 0 4.95 2.26 4.95 5.25s-2 5.25-4.95 5.25c-3.08 0-4.97-2.36-4.97-5.25m13.28 0v-8.2h-3.57v1.99a6.23 6.23 0 0 0-5.18-2.4c-4.6 0-8.2 3.6-8.2 8.61s3.6 8.62 8.2 8.62c2.33 0 4.05-.93 5.18-2.4v1.99h3.57zm-20.11 8.2v-10.3c0-3.87-2.48-6.48-6.46-6.52a6.35 6.35 0 0 0-5.77 2.92 6.03 6.03 0 0 0-5.42-2.92c-1.75 0-3.47.52-4.8 2.44v-2.02h-3.58v16.4h3.6v-9.1c0-2.84 1.59-4.35 4.02-4.35 2.37 0 3.58 1.54 3.58 4.32v9.14h3.6v-9.1c0-2.85 1.65-4.36 4.01-4.36 2.45 0 3.61 1.54 3.61 4.32v9.14zm112.36-1.22v.4h.37a.4.4 0 0 0 .2-.05c.05-.03.08-.09.08-.15s-.03-.12-.08-.15a.34.34 0 0 0-.2-.05zm.37-.29c.2 0 .34.05.45.13s.16.2.16.36a.4.4 0 0 1-.13.3.62.62 0 0 1-.36.16l.5.57h-.39l-.46-.57h-.14v.57h-.33v-1.52zm-.1 2.03a1.29 1.29 0 0 0 1.16-.77 1.3 1.3 0 0 0-.26-1.4c-.12-.1-.25-.2-.4-.26-.15-.07-.32-.1-.5-.1s-.34.03-.5.1a1.2 1.2 0 0 0-.67.67c-.07.15-.1.32-.1.5s.03.34.1.5a1.25 1.25 0 0 0 1.17.77m0-2.9a1.62 1.62 0 0 1 .64 3.13 1.66 1.66 0 0 1-2.31-1.5 1.6 1.6 0 0 1 1.01-1.5c.21-.1.43-.14.66-.14" fill="#231f20"/>
</svg>
