<svg xmlns="http://www.w3.org/2000/svg" viewBox="0 0 200 155.58">
    <path d="M195.93 153.4v.4h.37a.4.4 0 0 0 .2-.05c.05-.03.08-.09.08-.15s-.03-.12-.07-.15a.36.36 0 0 0-.2-.05zm.38-.29c.19 0 .34.05.44.13s.16.2.16.36a.4.4 0 0 1-.12.3.61.61 0 0 1-.36.16l.5.57h-.4l-.45-.57h-.15v.57h-.32v-1.52zm-.1 2.04a1.29 1.29 0 0 0 1.16-.78 1.3 1.3 0 0 0-.27-1.4c-.11-.1-.25-.2-.4-.27a1.31 1.31 0 0 0-.5-.09 1.26 1.26 0 0 0-.9.37 1.22 1.22 0 0 0-.37.9c0 .17.04.34.1.5a1.23 1.23 0 0 0 1.17.77m0-2.9a1.63 1.63 0 0 1 1.18.47 1.6 1.6 0 0 1 .36 1.79 1.69 1.69 0 0 1-.88.87 1.66 1.66 0 0 1-2.32-1.5 1.6 1.6 0 0 1 1.01-1.5c.2-.1.42-.14.66-.14m-153.1-5.82c0-2.89 1.89-5.26 4.97-5.26 2.96 0 4.95 2.27 4.95 5.26s-2 5.25-4.95 5.25c-3.08 0-4.97-2.37-4.97-5.25m13.28 0v-8.2h-3.57v1.98a6.22 6.22 0 0 0-5.18-2.4c-4.6 0-8.2 3.6-8.2 8.62 0 5.01 3.6 8.61 8.2 8.61a6.2 6.2 0 0 0 5.18-2.4v2h3.57zm120.58 0c0-2.89 1.89-5.26 4.98-5.26 2.95 0 4.94 2.27 4.94 5.26s-1.99 5.25-4.94 5.25c-3.1 0-4.98-2.37-4.98-5.25m13.29 0v-14.8h-3.57v8.58a6.22 6.22 0 0 0-5.19-2.4c-4.6 0-8.2 3.6-8.2 8.62 0 5.01 3.6 8.61 8.2 8.61 2.34 0 4.06-.92 5.19-2.4v2h3.57zm-89.58-5.43c2.3 0 3.78 1.45 4.16 3.99h-8.52c.38-2.37 1.82-3.99 4.36-3.99m.07-3.19c-4.8 0-8.17 3.5-8.17 8.62 0 5.22 3.5 8.61 8.41 8.61 2.48 0 4.74-.61 6.73-2.3l-1.75-2.64a7.85 7.85 0 0 1-4.77 1.72c-2.3 0-4.4-1.07-4.91-4.02h12.19c.03-.45.07-.9.07-1.37-.04-5.12-3.2-8.62-7.8-8.62m43.09 8.62c0-2.89 1.89-5.26 4.98-5.26 2.95 0 4.94 2.27 4.94 5.26s-2 5.25-4.94 5.25c-3.1 0-4.98-2.37-4.98-5.25m13.28 0v-8.2h-3.56v1.98a6.23 6.23 0 0 0-5.19-2.4c-4.6 0-8.2 3.6-8.2 8.62 0 5.01 3.6 8.61 8.2 8.61 2.34 0 4.05-.92 5.19-2.4v2h3.56zm-33.43 0c0 4.98 3.46 8.61 8.75 8.61a8.6 8.6 0 0 0 5.9-1.95l-1.7-2.89a7.21 7.21 0 0 1-4.3 1.48c-2.85-.03-4.95-2.1-4.95-5.25s2.1-5.22 4.95-5.26c1.54 0 2.95.52 4.3 1.48l1.7-2.88a8.6 8.6 0 0 0-5.9-1.96c-5.29 0-8.75 3.64-8.75 8.62m46-8.62c-2.06 0-3.4.96-4.33 2.4v-1.99h-3.53v16.41h3.57v-9.2c0-2.71 1.17-4.22 3.5-4.22.72 0 1.48.1 2.23.41l1.1-3.36a7.6 7.6 0 0 0-2.54-.45m-95.65 1.72c-1.72-1.13-4.08-1.72-6.7-1.72-4.15 0-6.83 2-6.83 5.25 0 2.68 2 4.33 5.67 4.84l1.68.24c1.96.28 2.88.8 2.88 1.72 0 1.27-1.3 2-3.74 2a8.74 8.74 0 0 1-5.46-1.72l-1.68 2.78a11.84 11.84 0 0 0 7.1 2.12c4.75 0 7.5-2.23 7.5-5.35 0-2.89-2.17-4.4-5.74-4.9l-1.68-.25c-1.55-.2-2.78-.51-2.78-1.61 0-1.2 1.16-1.93 3.12-1.93 2.1 0 4.12.8 5.12 1.41zm46.04-1.72c-2.06 0-3.4.96-4.32 2.4v-1.99h-3.54v16.41h3.57v-9.2c0-2.71 1.17-4.22 3.5-4.22.72 0 1.48.1 2.23.41l1.1-3.36a7.6 7.6 0 0 0-2.54-.45m-30.45.41h-5.84v-4.98h-3.6v4.98h-3.33v3.26h3.33v7.49c0 3.8 1.47 6.07 5.7 6.07 1.54 0 3.33-.47 4.46-1.26l-1.03-3.06a6.6 6.6 0 0 1-3.16.93c-1.78 0-2.37-1.1-2.37-2.75v-7.42h5.84zm-53.35 16.41v-10.3c0-3.88-2.48-6.49-6.46-6.52a6.35 6.35 0 0 0-5.77 2.92 6.02 6.02 0 0 0-5.42-2.92 5.4 5.4 0 0 0-4.8 2.44v-2.03h-3.58v16.41h3.6v-9.1c0-2.84 1.58-4.36 4.02-4.36 2.37 0 3.57 1.55 3.57 4.33v9.13h3.61v-9.1c0-2.84 1.65-4.36 4.02-4.36 2.43 0 3.6 1.55 3.6 4.33v9.13z" fill="#231f20"/>
    <path d="M198.13 100.05v-2.4h-.62l-.73 1.65-.72-1.65h-.63v2.4h.45v-1.81l.67 1.56h.46l.68-1.56v1.8zm-3.97 0v-2h.8v-.4h-2.04v.4h.8v2z" fill="#f79410"/>
    <path d="M127.08 110.36H73V13.17h54.08z" fill="#ff5f00"/>
    <path d="M76.47 61.76a61.7 61.7 0 0 1 23.6-48.6 61.8 61.8 0 0 0-100 48.6 61.8 61.8 0 0 0 100 48.6 61.7 61.7 0 0 1-23.6-48.6" fill="#eb001b"/>
    <path d="M200.02 61.76a61.8 61.8 0 0 1-100 48.6c14.37-11.33 23.6-28.89 23.6-48.6s-9.23-37.28-23.6-48.6a61.8 61.8 0 0 1 100 48.6" fill="#f79e1b"/>
</svg>
