<svg xmlns="http://www.w3.org/2000/svg" viewBox="0 0 2450 595">
    <g fill="none">
        <path fill="#F7F7F7" fill-opacity=".8" fill-rule="evenodd" d="M0 0h2450v600H0V0zm1544.5 498a7.5 7.5 0 0 0 7.5-7.5V198h-300v292.5a7.5 7.5 0 0 0 7.5 7.5h285z"/>
        <path fill="#FFF" d="M1552 198h-300v-39.48c0-4.153 3.358-7.52 7.5-7.52h285c4.142 0 7.5 3.367 7.5 7.52V198z"/>
        <path stroke="#F5A623" stroke-width="2" d="M1294 175c0 8.284-6.716 15-15 15-8.285 0-15-6.716-15-15 0-8.284 6.715-15 15-15 8.284 0 15 6.716 15 15"/>
        <path fill="#323F4C" d="M1307 171.152h1.28v1.744h.032c.33-.672.736-1.168 1.216-1.488.48-.32 1.088-.47 1.824-.448v1.44c-.544 0-1.008.075-1.392.224-.384.15-.693.368-.928.656a2.714 2.714 0 0 0-.512 1.048c-.107.41-.16.883-.16 1.416v3.68H1307v-8.272zm10.776 3.344a2.783 2.783 0 0 0-.216-.912 2.331 2.331 0 0 0-.496-.744 2.327 2.327 0 0 0-1.672-.68c-.352 0-.67.061-.952.184-.283.123-.526.29-.728.504a2.411 2.411 0 0 0-.48.744 2.833 2.833 0 0 0-.208.904h4.752zm1.312 2.304c-.182.928-.582 1.627-1.2 2.096-.62.47-1.398.704-2.336.704-.662 0-1.235-.107-1.72-.32a3.39 3.39 0 0 1-1.224-.896 3.806 3.806 0 0 1-.744-1.376 6.63 6.63 0 0 1-.28-1.744c0-.63.096-1.205.288-1.728a4.13 4.13 0 0 1 .808-1.36 3.666 3.666 0 0 1 1.232-.896c.474-.213.994-.32 1.56-.32.736 0 1.346.152 1.832.456.485.304.874.69 1.168 1.16.293.47.496.981.608 1.536.112.555.157 1.083.136 1.584h-6.192c-.011.363.032.707.128 1.032.096.325.25.613.464.864.213.25.485.45.816.6.33.15.72.224 1.168.224.576 0 1.048-.133 1.416-.4.368-.267.61-.672.728-1.216h1.344zm1.617-5.648h1.28v1.216h.032c.618-.939 1.51-1.408 2.672-1.408.512 0 .976.107 1.392.32.416.213.71.576.88 1.088a2.888 2.888 0 0 1 1.096-1.04 3.092 3.092 0 0 1 1.496-.368c.416 0 .792.045 1.128.136.336.09.624.232.864.424.24.192.426.44.56.744.133.304.2.67.2 1.096v6.064h-1.36V174c0-.256-.022-.496-.064-.72a1.47 1.47 0 0 0-.24-.584 1.198 1.198 0 0 0-.488-.392c-.208-.096-.478-.144-.808-.144-.672 0-1.2.192-1.584.576-.384.384-.576.896-.576 1.536v5.152h-1.36V174c0-.267-.024-.512-.072-.736a1.562 1.562 0 0 0-.248-.584 1.158 1.158 0 0 0-.472-.384c-.198-.09-.45-.136-.76-.136-.395 0-.734.08-1.016.24a2.303 2.303 0 0 0-1.072 1.272c-.08.24-.12.44-.12.6v5.152h-1.36v-8.272zm14.638 4.144c0 .501.066.947.2 1.336.133.39.317.715.552.976.234.261.51.461.824.6.314.139.648.208 1 .208s.685-.07 1-.208c.314-.139.59-.339.824-.6.234-.261.418-.587.552-.976.133-.39.2-.835.2-1.336 0-.501-.067-.947-.2-1.336a2.883 2.883 0 0 0-.552-.984 2.35 2.35 0 0 0-.824-.608 2.452 2.452 0 0 0-1-.208c-.352 0-.686.07-1 .208a2.35 2.35 0 0 0-.824.608 2.883 2.883 0 0 0-.552.984c-.134.39-.2.835-.2 1.336zm-1.44 0a5.5 5.5 0 0 1 .256-1.704 3.86 3.86 0 0 1 .768-1.376 3.6 3.6 0 0 1 1.264-.92c.501-.224 1.077-.336 1.728-.336.661 0 1.24.112 1.736.336.496.224.914.53 1.256.92.341.39.597.848.768 1.376a5.51 5.51 0 0 1 .256 1.704c0 .608-.086 1.173-.256 1.696a3.86 3.86 0 0 1-.768 1.368 3.55 3.55 0 0 1-1.256.912c-.496.219-1.075.328-1.736.328-.65 0-1.227-.11-1.728-.328a3.533 3.533 0 0 1-1.264-.912 3.871 3.871 0 0 1-.768-1.368 5.434 5.434 0 0 1-.256-1.696zm9.63-4.144h1.28v1.312h.032c.565-1.003 1.461-1.504 2.688-1.504.544 0 .997.075 1.36.224.362.15.656.357.88.624.224.267.381.584.472.952.09.368.136.776.136 1.224v5.44h-1.36v-5.6c0-.512-.15-.917-.448-1.216-.299-.299-.71-.448-1.232-.448-.416 0-.776.064-1.08.192-.304.128-.558.31-.76.544-.203.235-.355.51-.456.824a3.35 3.35 0 0 0-.152 1.032v4.672h-1.36v-8.272zm10.68 0h1.647v1.2h-1.648v5.136c0 .16.014.288.04.384.027.096.078.17.152.224a.672.672 0 0 0 .312.104c.134.016.307.024.52.024h.624v1.2h-1.04c-.352 0-.653-.024-.904-.072a1.328 1.328 0 0 1-.608-.264 1.128 1.128 0 0 1-.344-.544c-.074-.235-.112-.544-.112-.928v-5.264h-1.408v-1.2h1.408v-2.48h1.36v2.48zm3.359 6.496h1.776v1.776h-1.776v-1.776zm4.795-2.288c0 .384.05.76.152 1.128.101.368.256.696.464.984.208.288.474.517.8.688.325.17.706.256 1.144.256.458 0 .848-.09 1.168-.272a2.34 2.34 0 0 0 .784-.712c.202-.293.35-.627.44-1a4.83 4.83 0 0 0-.008-2.312 2.91 2.91 0 0 0-.456-1 2.33 2.33 0 0 0-.808-.696c-.33-.176-.73-.264-1.2-.264-.459 0-.848.09-1.168.272a2.16 2.16 0 0 0-.768.72 3.15 3.15 0 0 0-.416 1.024 5.442 5.442 0 0 0-.128 1.184zm6.4 4.064h-1.36v-1.12h-.032c-.224.459-.576.79-1.056.992a4.032 4.032 0 0 1-1.584.304c-.64 0-1.198-.117-1.672-.352a3.44 3.44 0 0 1-1.184-.944 4.113 4.113 0 0 1-.712-1.376 5.655 5.655 0 0 1-.24-1.664c0-.587.077-1.141.232-1.664.154-.523.39-.979.704-1.368a3.4 3.4 0 0 1 1.184-.928c.474-.23 1.026-.344 1.656-.344.213 0 .442.021.688.064.245.043.49.115.736.216.245.101.477.235.696.4.218.165.402.37.552.616h.032V168h1.36v11.424zm7.809-4.928a2.783 2.783 0 0 0-.216-.912 2.331 2.331 0 0 0-.496-.744 2.327 2.327 0 0 0-1.672-.68c-.352 0-.67.061-.952.184-.283.123-.525.29-.728.504a2.411 2.411 0 0 0-.48.744 2.833 2.833 0 0 0-.208.904h4.752zm1.312 2.304c-.181.928-.581 1.627-1.2 2.096-.619.47-1.397.704-2.336.704-.661 0-1.235-.107-1.72-.32a3.39 3.39 0 0 1-1.224-.896 3.806 3.806 0 0 1-.744-1.376 6.63 6.63 0 0 1-.28-1.744c0-.63.096-1.205.288-1.728a4.13 4.13 0 0 1 .808-1.36 3.666 3.666 0 0 1 1.232-.896 3.77 3.77 0 0 1 1.56-.32c.736 0 1.347.152 1.832.456.485.304.875.69 1.168 1.16.293.47.496.981.608 1.536.112.555.157 1.083.136 1.584h-6.192a3.3 3.3 0 0 0 .128 1.032c.096.325.25.613.464.864.213.25.485.45.816.6.33.15.72.224 1.168.224.576 0 1.048-.133 1.416-.4.368-.267.61-.672.728-1.216h1.344zm2.483.016c.01.299.08.552.208.76.128.208.296.373.504.496.208.123.442.21.704.264.261.053.53.08.808.08.213 0 .437-.016.672-.048.234-.032.45-.09.648-.176.197-.085.36-.21.488-.376.128-.165.192-.376.192-.632 0-.352-.134-.619-.4-.8a3.404 3.404 0 0 0-1-.44c-.4-.112-.835-.213-1.304-.304a6.766 6.766 0 0 1-1.304-.384 2.7 2.7 0 0 1-1-.696c-.267-.299-.4-.715-.4-1.248 0-.416.093-.773.28-1.072a2.29 2.29 0 0 1 .72-.728c.293-.187.624-.325.992-.416a4.6 4.6 0 0 1 1.096-.136c.47 0 .901.04 1.296.12.394.08.744.219 1.048.416.304.197.546.464.728.8.181.336.288.755.32 1.256h-1.36a1.377 1.377 0 0 0-.208-.664 1.362 1.362 0 0 0-.448-.424 2.035 2.035 0 0 0-.6-.232 3.088 3.088 0 0 0-.664-.072c-.203 0-.408.016-.616.048a2.075 2.075 0 0 0-.568.168c-.17.08-.31.187-.416.32a.807.807 0 0 0-.16.52c0 .235.082.43.248.584.165.155.376.283.632.384.256.101.544.187.864.256.32.07.64.141.96.216.341.075.674.165 1 .272.325.107.613.248.864.424.25.176.453.397.608.664.154.267.232.597.232.992 0 .501-.104.917-.312 1.248-.208.33-.48.597-.816.8a3.41 3.41 0 0 1-1.136.424c-.422.08-.84.12-1.256.12-.459 0-.896-.048-1.312-.144a3.219 3.219 0 0 1-1.104-.472 2.407 2.407 0 0 1-.768-.864c-.192-.357-.299-.792-.32-1.304h1.36zm8.606-7.152h-1.36V168h1.36v1.664zm-1.36 1.488h1.36v8.272h-1.36v-8.272zm10.595 7.568c0 1.355-.31 2.368-.928 3.04-.62.672-1.59 1.008-2.912 1.008a5.65 5.65 0 0 1-1.176-.128 3.603 3.603 0 0 1-1.088-.416 2.534 2.534 0 0 1-.808-.752c-.214-.31-.331-.688-.352-1.136h1.36c.01.245.088.453.232.624.144.17.32.31.528.416.208.107.434.184.68.232.245.048.48.072.704.072.448 0 .826-.077 1.136-.232.309-.155.565-.368.768-.64.202-.272.349-.6.44-.984a5.5 5.5 0 0 0 .136-1.264v-.544h-.032a2.29 2.29 0 0 1-1.064 1.128c-.475.24-.98.36-1.512.36-.62 0-1.158-.112-1.616-.336a3.382 3.382 0 0 1-1.152-.904 3.85 3.85 0 0 1-.696-1.328 5.478 5.478 0 0 1-.232-1.608c0-.49.064-.995.192-1.512s.34-.987.64-1.408a3.508 3.508 0 0 1 1.184-1.04c.49-.272 1.093-.408 1.808-.408a3.06 3.06 0 0 1 1.44.344c.437.23.778.573 1.024 1.032h.016v-1.184h1.28v7.568zm-3.808-.4c.448 0 .829-.093 1.144-.28a2.24 2.24 0 0 0 .76-.736c.192-.304.333-.648.424-1.032.09-.384.136-.768.136-1.152 0-.363-.043-.72-.128-1.072a2.99 2.99 0 0 0-.408-.952 2.12 2.12 0 0 0-.728-.68c-.3-.17-.662-.256-1.088-.256-.438 0-.811.083-1.12.248-.31.165-.563.387-.76.664a2.816 2.816 0 0 0-.432.96 4.65 4.65 0 0 0-.136 1.136c0 .373.037.747.112 1.12.074.373.202.712.384 1.016.18.304.42.55.72.736.298.187.672.28 1.12.28zm5.842-7.168h1.28v1.312h.032c.566-1.003 1.462-1.504 2.688-1.504.544 0 .998.075 1.36.224.363.15.656.357.88.624.224.267.382.584.472.952.091.368.136.776.136 1.224v5.44h-1.36v-5.6c0-.512-.149-.917-.448-1.216-.298-.299-.709-.448-1.232-.448-.416 0-.776.064-1.08.192-.304.128-.557.31-.76.544-.202.235-.354.51-.456.824a3.35 3.35 0 0 0-.152 1.032v4.672h-1.36v-8.272z"/>
        <path fill="#000" d="M1271.597 177.93c0-.296.028-.592.07-.888a6.74 6.74 0 0 1 .608-2.028c.734-1.507 1.835-2.591 3.36-3.211.282-.113.578-.197.874-.268h.043c-.07.183-.141.352-.212.521a7.207 7.207 0 0 0-.367 1.634 7.619 7.619 0 0 0 .056 2.042c.283 1.648 1.03 3.043 2.26 4.141a6.147 6.147 0 0 0 2.921 1.48c.565.112 1.13.14 1.694.098h.042c-.056.112-.127.211-.197.324-.706 1.056-1.624 1.859-2.795 2.352a5.658 5.658 0 0 1-1.595.408c-.1.014-.198.014-.283.028-.014 0-.028-.014-.042.014h-.042c-.015-.014-.043 0-.057 0h-.254c-.028-.014-.056 0-.099 0h-.212c-.084-.014-.169-.014-.254-.014a3.933 3.933 0 0 1-.691-.112 5.774 5.774 0 0 1-1.426-.521 6.391 6.391 0 0 1-1.214-.831 5.748 5.748 0 0 1-.508-.507 6.562 6.562 0 0 1-.55-.69 5.972 5.972 0 0 1-.565-1.015 7.562 7.562 0 0 1-.466-1.38 7.378 7.378 0 0 1-.127-.775c-.014-.112-.014-.21-.028-.324 0-.112-.015-.225 0-.352.056-.042.056-.084.056-.126"/>
        <path fill="#EA5C37" d="M1286.405 171.845c0 .225-.014.465-.028.69a6.927 6.927 0 0 1-.494 2c-.622 1.48-1.638 2.606-3.05 3.324a5.603 5.603 0 0 1-1.34.465h-.029c0-.028.014-.042.014-.056.269-.62.438-1.254.523-1.916.056-.422.084-.845.056-1.267a7.187 7.187 0 0 0-1.44-4.113c-.819-1.085-1.849-1.845-3.12-2.268a5.623 5.623 0 0 0-1.524-.296 7.938 7.938 0 0 0-.819 0h-.113a6.377 6.377 0 0 1 2.061-2.183 5.944 5.944 0 0 1 2.824-.93c.014-.013.042 0 .056 0h.07c.043 0 .071.015.114 0h.211c.028.015.07 0 .1 0h.112c.325 0 .635.057.96.128.508.112.988.295 1.454.535a6.636 6.636 0 0 1 1.524 1.127c.198.197.382.408.55.633.297.395.537.817.75 1.254.21.45.366.93.465 1.422.056.24.085.493.113.733.014.112.028.225.028.338-.028.14-.014.267-.028.38"/>
    </g>
</svg>
