<?xml version="1.0" standalone="no"?>
<!DOCTYPE svg PUBLIC "-//W3C//DTD SVG 20010904//EN"
 "http://www.w3.org/TR/2001/REC-SVG-20010904/DTD/svg10.dtd">
<svg version="1.0" xmlns="http://www.w3.org/2000/svg"
 width="640.000000pt" height="640.000000pt" viewBox="0 0 640.000000 640.000000"
 preserveAspectRatio="xMidYMid meet">
<metadata>
Created by potrace 1.11, written by Peter Selinger 2001-2013
</metadata>
<g transform="translate(0.000000,640.000000) scale(0.100000,-0.100000)"
fill="#000000" stroke="none">
<path d="M500 6384 c-234 -50 -436 -254 -485 -489 -22 -106 -22 -5284 0 -5390
50 -238 252 -440 490 -490 106 -22 5284 -22 5390 0 182 38 352 170 434 335 77
158 72 -77 69 2877 l-3 2648 -23 70 c-76 227 -237 377 -466 435 -78 20 -111
20 -2710 19 -2212 0 -2641 -3 -2696 -15z m4181 -629 c229 -40 446 -179 577
-369 65 -94 83 -132 122 -251 75 -233 43 -502 -87 -724 -21 -35 -73 -102 -117
-148 -184 -196 -420 -292 -686 -280 -236 11 -427 92 -588 249 -116 113 -187
231 -238 393 -27 84 -29 101 -29 250 1 154 2 164 34 260 42 124 70 182 133
267 203 276 542 412 879 353z m-3239 -1811 c57 -26 150 -68 208 -94 58 -27
155 -71 215 -98 l110 -50 7 -89 c38 -488 338 -827 806 -908 48 -9 146 -15 229
-15 244 0 426 49 593 161 48 33 91 59 94 59 8 0 595 -267 605 -276 7 -7 -70
-101 -126 -155 -274 -259 -610 -382 -1088 -396 -291 -9 -513 19 -733 92 -227
76 -376 168 -543 334 -254 255 -412 580 -475 976 -20 128 -32 505 -16 505 7 0
58 -21 114 -46z m643 -2388 c108 -28 198 -92 259 -184 55 -83 76 -153 76 -253
0 -169 -80 -308 -230 -396 -65 -39 -145 -56 -245 -51 -82 3 -101 8 -168 41
-121 60 -199 150 -237 276 -34 108 -22 240 31 343 30 58 119 150 178 181 98
54 232 71 336 43z m1794 3 c75 -17 153 -62 212 -121 204 -203 169 -542 -73
-698 -124 -81 -300 -94 -431 -32 -85 39 -182 133 -221 214 -101 206 -23 466
175 585 95 57 229 77 338 52z"/>
</g>
</svg>
