<svg xmlns="http://www.w3.org/2000/svg" style="display:none; position:absolute; width:0; height:0;">

    <symbol id="symbol-keyboard-down" viewBox="0 0 24 24">
        <path
            d="M7.41 7.84L12 12.42l4.59-4.58L18 9.25l-6 6-6-6z"/>
    </symbol>

    <symbol id="symbol-remove" viewBox="0 0 24 24">
        <path
            d="M19 13H5v-2h14v2z"/>
    </symbol>

    <symbol id="symbol-add" viewBox="0 0 24 24">
        <path
            d="M19 13h-6v6h-2v-6H5v-2h6V5h2v6h6v2z"/>
    </symbol>

    <symbol id="symbol-close" viewBox="0 0 24 24">
        <path
            d="M19 6.41L17.59 5 12 10.59 6.41 5 5 6.41 10.59 12 5 17.59 6.41 19 12 13.41 17.59 19 19 17.59 13.41 12z"/>
    </symbol>

    <symbol id="symbol-heart" viewBox="0 0 24 24">
        <path
            d="M12 21.35l-1.45-1.32C5.4 15.36 2 12.28 2 8.5 2 5.42 4.42 3 7.5 3c1.74 0 3.41.81 4.5 2.09C13.09 3.81 14.76 3 16.5 3 19.58 3 22 5.42 22 8.5c0 3.78-3.4 6.86-8.55 11.54L12 21.35z"/>
    </symbol>

    <symbol id="symbol-comparison" viewBox="0 0 24 24">
        <path
            d="M14 10H2v2h12v-2zm0-4H2v2h12V6zm4 8v-4h-2v4h-4v2h4v4h2v-4h4v-2h-4zM2 16h8v-2H2v2z"/>
    </symbol>

    <symbol id="symbol-menu" viewBox="0 0 24 24">
        <path
            d="M3 18h18v-2H3v2zm0-5h18v-2H3v2zm0-7v2h18V6H3z"/>
    </symbol>

    <symbol id="symbol-location" viewBox="0 0 24 24">
        <path d="M12 2C8 2 5 5 5 9c0 5 7 13 7 13s7-8 7-13c0-4-3-7-7-7zm0 10a3 3 0 1 1 0-6 3 3 0 0 1 0 6z"/>
    </symbol>

    <symbol id="symbol-search" viewBox="0 0 24 24">
        <path
            d="M15.5 14h-.79l-.28-.27A6.471 6.471 0 0 0 16 9.5 6.5 6.5 0 1 0 9.5 16c1.61 0 3.09-.59 4.23-1.57l.27.28v.79l5 4.99L20.49 19l-4.99-5zm-6 0C7.01 14 5 11.99 5 9.5S7.01 5 9.5 5 14 7.01 14 9.5 11.99 14 9.5 14z"/>
    </symbol>

    <symbol id="symbol-person" viewBox="0 0 24 24">
        <path
            d="M12 12c2.21 0 4-1.79 4-4s-1.79-4-4-4-4 1.79-4 4 1.79 4 4 4zm0 2c-2.67 0-8 1.34-8 4v2h16v-2c0-2.66-5.33-4-8-4z"/>
    </symbol>

    <symbol id="symbol-cart" viewBox="0 0 24 24">
        <path
            d="M7 18c-1.1 0-1.99.9-1.99 2S5.9 22 7 22s2-.9 2-2-.9-2-2-2zM1 2v2h2l3.6 7.59-1.35 2.45c-.16.28-.25.61-.25.96 0 1.1.9 2 2 2h12v-2H7.42c-.14 0-.25-.11-.25-.25l.03-.12.9-1.63h7.45c.75 0 1.41-.41 1.75-1.03l3.58-6.49A1.003 1.003 0 0 0 20 4H5.21l-.94-2H1zm16 16c-1.1 0-1.99.9-1.99 2s.89 2 1.99 2 2-.9 2-2-.9-2-2-2z"/>
    </symbol>

    <symbol id="symbol-trash" viewBox="0 0 24 24">
        <path
            d="M6 19c0 1.1.9 2 2 2h8c1.1 0 2-.9 2-2V7H6v12zM19 4h-3.5l-1-1h-5l-1 1H5v2h14V4z"/>
    </symbol>

    <symbol id="symbol-credit-card" viewBox="0 0 24 24">
        <path
            d="M20 4H4c-1.11 0-1.99.89-1.99 2L2 18c0 1.11.89 2 2 2h16c1.11 0 2-.89 2-2V6c0-1.11-.89-2-2-2zm0 14H4v-6h16v6zm0-10H4V6h16v2z"/>
    </symbol>

    <symbol id="symbol-truck" viewBox="0 0 24 24">
        <path
            d="M20 8h-3V4H3c-1.1 0-2 .9-2 2v11h2c0 1.66 1.34 3 3 3s3-1.34 3-3h6c0 1.66 1.34 3 3 3s3-1.34 3-3h2v-5l-3-4zM6 18.5c-.83 0-1.5-.67-1.5-1.5s.67-1.5 1.5-1.5 1.5.67 1.5 1.5-.67 1.5-1.5 1.5zm13.5-9l1.96 2.5H17V9.5h2.5zm-1.5 9c-.83 0-1.5-.67-1.5-1.5s.67-1.5 1.5-1.5 1.5.67 1.5 1.5-.67 1.5-1.5 1.5z"/>
    </symbol>

    <symbol id="symbol-confirmation" viewBox="138 195 20 16">
        <path
            d="M158 201v-4a2 2 0 0 0-2-2h-16a1.991 1.991 0 0 0-1.99 2v4a2 2 0 0 1-.01 4v4a2.006 2.006 0 0 0 2 2h16a2.006 2.006 0 0 0 2-2v-4a2 2 0 0 1 0-4zm-9 7.5h-2v-2h2zm0-4.5h-2v-2h2zm0-4.5h-2v-2h2z"/>
    </symbol>

    <symbol id="symbol-width" viewBox="0 0 8 16">
        <path
              d="M7 0H1C.4 0 0 .4 0 1v2h3v2H0v2h3v2H0v2h3v2H0v2c0 .6.4 1 1 1h6c.6 0 1-.4 1-1V1c0-.6-.4-1-1-1z"/>
    </symbol>

    <symbol id="symbol-height" viewBox="0 0 16 8">
        <path
              d="M11 0v3h2V0h2c.5522847 0 1 .4477152 1 1v6c0 .5522847-.4477153 1-1 1H1c-.5522847 0-1-.4477153-1-1V1c0-.5522848.4477153-1 1-1h2v3h2V0h2v3h2V0h2z"/>
    </symbol>

    <symbol id="symbol-length" viewBox="0 0 16 16">
        <path
              d="M15.7 4.3l-4-4c-.4-.4-1-.4-1.4 0L9 1.6l1.7 1.7-1.4 1.4L7.6 3 6 4.6l1.7 1.7-1.4 1.4L4.6 6 3 7.6l1.7 1.7-1.4 1.4L1.6 9 .3 10.3c-.4.4-.4 1 0 1.4l4 4c.4.4 1 .4 1.4 0l10-10c.4-.4.4-1 0-1.4z"/>
    </symbol>

    <symbol id="symbol-weight" viewBox="0 0 11 15">
        <path
              d="M11 11.3V6c0-.8-.5-1.5-1.4-1.6H8.1V3c.6-.4 1-1 .9-1.6C8.9.5 8.2 0 7.2 0H3.3C2.6.2 2.1.7 2 1.5c0 .6.3 1.2.9 1.6v1.3H1.6C.6 4.4 0 5 0 5.9v7.6c0 .5.2 1 .6 1.2l.8.3h8.2c.8-.1 1.4-.8 1.4-1.7v-2z"/>
    </symbol>

    <symbol id="symbol-arrow-back" viewBox="0 0 24 24">
        <path d="M20 11H7.83l5.59-5.59L12 4l-8 8 8 8 1.41-1.41L7.83 13H20v-2z"/>
    </symbol>

    <symbol id="symbol-arrow-forward" viewBox="0 0 24 24">
        <path
            d="M12 4l-1.41 1.41L16.17 11H4v2h12.17l-5.58 5.59L12 20l8-8z"/>
    </symbol>

    <symbol id="symbol-logo" viewBox="294 222 1386.42 249.781">
        <g transform="translate(294 222)">
            <circle fill="#ff9001" cx="35.01" cy="35.01" r="35.01" transform="translate(1316.4 47.49)"/>
            <path fill="#323f4c" d="M1301.619 230.33a19.45 19.45 0 1 1 19.451 19.45 19.451 19.451 0 0 1-19.451-19.45zm-54.469 0a19.45 19.45 0 1 1 19.45 19.45 19.45 19.45 0 0 1-19.45-19.45zm-453.63 18.45q-60.554 0-60.56-50.81v-71.34q0-28.184 17.581-43.85T797 67.12q28.875 0 45.06 15.49t16.179 43v47.68L758 178.48v18.1q0 29.58 34.8 29.58 21.57 0 47.33-14.27l9.39 20.53q-26.765 16.35-55.947 16.36zm.97-158.681q-15.314 0-25.93 9.391T758 127v27.84l74.77-3.84v-26.8q0-18.434-11.479-26.27-11.453-7.83-26.742-7.83zM192.1 248.6V133.41q0-29.925-19.48-36.54a46.728 46.728 0 0 0-12.36-2.091q-5 0-11.31.35T130.86 100l-10.79 5.22a51.608 51.608 0 0 1 4.521 21.93V248.6h-25V133.76q0-16.351-7.66-26.1-9.8-12.871-29.281-12.881a74.142 74.142 0 0 0-37.589 10.44V248.6H0V74.25h23.67L24 83a87.033 87.033 0 0 1 43.35-11.181q23.49 0 39.489 16.35 29.581-16.7 56-16.7 25.064 0 39.669 16t14.622 40.711V248.6zm881.49-19.83q-16.529-19.305-16.53-48.2v-45.94q0-33.06 16.88-50.63t47.85-17.581q31 0 48 18.27t17.07 49.94v45.94q0 29.234-16 48.37t-48.37 19.141q-32.369 0-48.9-19.31zm8.52-94.14v49.42q0 18.8 11 29.75t29.41 11q18.436 0 28.88-11t10.4-29.75v-49.42q0-44.19-39.32-44.19-40.38 0-40.37 44.19zm-803.52 94.14q-16.531-19.305-16.53-48.2v-45.94q0-33.06 16.88-50.63t47.85-17.58q31.005 0 48 18.27t17.07 49.94v45.94q0 29.234-16 48.37t-48.37 19.14q-32.37 0-48.9-19.31zm8.52-94.14v49.42q0 18.8 11 29.75t29.41 11q18.436 0 28.88-11t10.4-29.75v-49.42q0-44.19-39.32-44.19-40.38 0-40.37 44.19zm308.31 98.92q-17.04-14.264-17.73-35.15l24.36-1q1.38 12.884 12.87 20t26.45 7.13q15 0 25.93-6.78t11-19.49q0-12.7-9.4-20.18a71.647 71.647 0 0 0-23-11.84q-13.559-4.335-27.31-9.22a63.974 63.974 0 0 1-24.19-15.31 39.351 39.351 0 0 1-12.88-29.75q0-17.58 14.1-32.719t45.76-15.13a80.4 80.4 0 0 1 20.88 2.61q9.735 2.61 13.919 5l4.181 2.44-8 21.92q-11.146-8.685-29.23-8.7t-27 6.791q-8.88 6.78-8.87 17.22 0 11.49 11.129 18.1a124.254 124.254 0 0 0 25.06 11.14q13.905 4.514 27.66 10.09a57.2 57.2 0 0 1 23.32 17.4Q704 180 704 199.45t-15.66 33.93q-15.66 14.43-45.76 14.44h-.062q-30.061 0-47.098-14.27zm-155.57 0q-17.026-14.264-17.72-35.15l24.359-1q1.381 12.884 12.88 20a49.262 49.262 0 0 0 26.44 7.13q15 0 25.93-6.78t11-19.49q0-12.7-9.391-20.18a71.735 71.735 0 0 0-23-11.84Q476.775 161.875 463 157a63.981 63.981 0 0 1-24.19-15.31A39.369 39.369 0 0 1 426 111.93q0-17.58 14.089-32.72t45.761-15.13a80.477 80.477 0 0 1 20.88 2.61q9.75 2.611 13.919 5l4.18 2.44-8 21.92q-11.146-8.686-29.24-8.7t-27 6.79q-8.865 6.781-8.87 17.221 0 11.49 11.14 18.1a124.36 124.36 0 0 0 25 11.14q13.92 4.514 27.67 10.09a57.161 57.161 0 0 1 23.31 17.4q9.57 11.835 9.571 31.32t-15.66 33.929q-15.615 14.475-45.75 14.48h-.063q-30.09 0-47.087-14.27zm451.04 10.09V0h25.05v75.86q16.351-9.389 37.24-9.39t36.54 6.61q29.565 13.576 29.58 50.11V189q0 34.456-27.15 48.38-20.535 10.44-45.93 10.44a403.3 403.3 0 0 1-55.33-4.18zm47.32-151.79a74.942 74.942 0 0 0-22.271 8.35V222q17.4 2.445 26.28 2.44c5.91 0 9.221-.11 9.911-.35q17.4 0 29.93-9.05t12.53-25.73V127q0-16.709-9.049-26.1-10.1-10.784-29.93-10.789zm308.31 77.22q-16.531-19.305-16.53-48.2v-12.79l25.06 11.381v4.87q0 18.75 11 29.749 10.965 11 29.41 11t28.88-11a34.15 34.15 0 0 0 2.07-2.389l22.659 10.27a66.165 66.165 0 0 1-5.28 7.28q-16.005 19.14-48.37 19.14t-48.899-19.311z"/>
        </g>
    </symbol>

    <symbol id="symbol-logo-ru" viewBox="293.999 221.999 1386.421 489.41">
        <g transform="translate(294 222)">
            <circle fill="#ff9001" cx="35.01" cy="35.01" r="35.01" transform="translate(1316.4 47.49)"/>
            <path fill="#323f4c" d="M1252.52 489.41V373.42h14.73v13.46c6.9-9.45 17.79-14.26 30.28-14.26 24.881 0 42.99 17.311 42.99 43.26 0 26.12-18.1 43.421-42.95 43.421-12.01 0-22.59-4.6-29.641-13.8v43.91zm15.26-73.53c0 17.941 12.34 29.96 28.52 29.96s28.679-11.85 28.679-29.96c0-17.94-12.34-29.8-28.679-29.8s-28.52 11.86-28.52 29.8zm-345.95 62.17v-19.7h-70.99v19.7h-14.57v-33.16h4.5c12.18-.641 14.26-21.31 15.38-42.791l1.29-28.68h65.86v71.471h12.93v33.16zm-51.53-74.831c-.71 17.63-2.309 34.931-9.98 41.671h47.59v-58.01h-36.8zM443.53 458.19l.95-12.99a17.8 17.8 0 0 0 3.85.48c13.8 0 14.41-20.83 15.539-40.85l1.44-31.41h65.22v84.93H515.15v-71.47h-36.53l-.969 18.91c-1.44 29.96-5.45 53.84-24.671 53.84a35.976 35.976 0 0 1-9.45-1.44zM247.4 403.06c0-35.09 14.26-54.15 43.591-60.57l38.769-8.68 2.3 14.1-35.78 7.75c-22.119 4.8-32.539 15.7-34.14 37.81 7.21-10.89 19.23-17.14 33.49-17.14 24.04.04 40.86 16.969 40.86 41.31 0 24.989-17.94 41.98-43.9 41.98-29.01 0-45.19-20.83-45.19-56.56zm17.47 15.07c0 16.83 11.7 28.68 28.04 28.68s27.88-11.86 27.88-28.68-11.21-28.04-27.88-28.04-28.04 11.21-28.04 28.04zm683.59-2.23c0-25.32 18.1-43.269 42.56-43.269s41.99 17.629 41.99 43.709c.031 1.3-.17 3.22-.3 4.67h-68.88c1.921 14.89 13.94 24.83 30.77 24.83 9.94 0 18.26-3.37 24.511-10.26l8.5 9.94c-7.69 8.97-19.39 13.8-33.49 13.8-27.401 0-45.661-18.1-45.661-43.42zm15.37-5.95h54.48c-1.58-14.26-12.36-24.38-27.27-24.38-14.73 0-25.63 9.97-27.21 24.38zM350.6 415.9c0-25.32 18.1-43.269 42.62-43.269s41.98 17.629 41.98 43.709c0 1.3-.17 3.22-.33 4.67h-68.89c1.92 14.89 13.94 24.83 30.77 24.83 9.93 0 18.26-3.37 24.51-10.26l8.49 9.94c-7.68 8.97-19.38 13.8-33.48 13.8-27.41 0-45.67-18.1-45.67-43.42zm15.38-5.95h54.47c-1.6-14.26-12.33-24.38-27.24-24.38s-25.63 9.97-27.23 24.38zM143.9 415.9c0-25.32 18.1-43.269 42.611-43.269S228.5 390.26 228.5 416.34c0 1.3-.16 3.22-.32 4.67h-68.91c1.92 14.89 13.94 24.83 30.77 24.83 9.94 0 18.26-3.37 24.52-10.26l8.491 9.94c-7.691 8.97-19.391 13.8-33.49 13.8-27.401 0-45.661-18.1-45.661-43.42zm15.37-5.95h54.48c-1.6-14.26-12.34-24.38-27.249-24.38-14.721 0-25.631 9.97-27.231 24.38zm982.72 5.93c0-25.3 18.75-43.27 44.22-43.27s44.06 17.951 44.06 43.27-18.59 43.42-44.06 43.42-44.22-18.1-44.22-43.42zm15.55 0c0 18.1 12.34 29.96 28.679 29.96s28.52-11.85 28.52-29.96-12.18-29.8-28.52-29.8-28.679 11.7-28.679 29.8zM597.2 458.51l-36.8-.16v-84.93h15.38v28.68l23.88.16c21.57.17 33.11 10.25 33.11 27.73 0 18.258-12.623 28.522-35.047 28.522-.174 0-.347 0-.523-.002zm-21.48-11.84l20.191.16c13.939.14 21.15-5.63 21.15-17.01 0-11.21-7.051-16.02-21.15-16.18l-20.191-.32zm542.71 11.68l-28.52-35.9h-17.62v35.9h-15.39v-84.93h15.39v35.9h17.94l27.6-35.9h16.5l-32.2 40.871 34.45 44.059zm-356.829 0v-61.86l-51.951 61.86h-14.07v-84.93h15.38v61.86l52.08-61.861h13.94v84.93zm-657.6 0l-.16-81.66-40.58 68.04h-7.34L15.38 377.1v81.25H0V346.19h13.13l46.79 78.83 46.16-78.83h13.13l.16 112.16zm1197.618-228.02a19.45 19.45 0 1 1 19.451 19.45 19.451 19.451 0 0 1-19.451-19.45zm-54.469 0a19.45 19.45 0 1 1 19.45 19.45 19.45 19.45 0 0 1-19.45-19.45zm-453.63 18.45q-60.554 0-60.56-50.81v-71.34q0-28.184 17.581-43.85T797 67.12q28.875 0 45.06 15.49t16.179 43v47.68L758 178.48v18.1q0 29.58 34.8 29.58 21.57 0 47.33-14.27l9.39 20.53q-26.764 16.35-55.947 16.36zM768.56 99.49Q757.955 108.879 758 127v27.84l74.77-3.84v-26.8q0-18.434-11.479-26.27-11.453-7.83-26.742-7.83h-.059q-15.314 0-25.93 9.39zM192.1 248.6V133.41q0-29.925-19.48-36.54a46.728 46.728 0 0 0-12.36-2.091q-5 0-11.31.35T130.86 100l-10.79 5.22a51.608 51.608 0 0 1 4.521 21.93V248.6h-25V133.76q0-16.351-7.66-26.1-9.8-12.871-29.281-12.881a74.142 74.142 0 0 0-37.589 10.44V248.6H0V74.25h23.67L24 83a87.033 87.033 0 0 1 43.35-11.181q23.49 0 39.489 16.35 29.581-16.7 56-16.7 25.064 0 39.669 16t14.622 40.711V248.6zm881.49-19.83q-16.529-19.305-16.53-48.2v-45.94q0-33.06 16.88-50.63t47.85-17.581q31 0 48 18.27t17.07 49.94v45.94q0 29.234-16 48.37t-48.37 19.141q-32.369 0-48.9-19.31zm8.52-94.14v49.42q0 18.8 11 29.75t29.41 11q18.436 0 28.88-11t10.4-29.75v-49.42q0-44.19-39.32-44.19-40.38 0-40.37 44.19zm-803.52 94.14q-16.531-19.305-16.53-48.2v-45.94q0-33.06 16.88-50.63t47.85-17.58q31.005 0 48 18.27t17.07 49.94v45.94q0 29.234-16 48.37t-48.37 19.14q-32.37 0-48.9-19.31zm8.52-94.14v49.42q0 18.8 11 29.75t29.41 11q18.436 0 28.88-11t10.4-29.75v-49.42q0-44.19-39.32-44.19-40.38 0-40.37 44.19zm603.78 109.01V0h25.05v75.86q16.351-9.389 37.24-9.39t36.54 6.61q29.565 13.576 29.58 50.11V189q0 34.456-27.15 48.38-20.535 10.44-45.93 10.44a403.3 403.3 0 0 1-55.33-4.18zm47.32-151.79a74.942 74.942 0 0 0-22.271 8.35V222q17.4 2.445 26.28 2.44c5.91 0 9.221-.11 9.911-.35q17.4 0 29.93-9.05t12.53-25.73V127q0-16.709-9.049-26.1-10.1-10.784-29.93-10.789zM642.518 247.82q-30.06 0-47.1-14.27T577.69 198.4l24.36-1q1.38 12.884 12.87 20t26.45 7.13q15 0 25.93-6.78t11-19.49q0-12.7-9.4-20.18a71.647 71.647 0 0 0-23-11.84q-13.559-4.335-27.31-9.22a63.974 63.974 0 0 1-24.19-15.31 39.351 39.351 0 0 1-12.88-29.75q0-17.58 14.1-32.719t45.76-15.13a80.4 80.4 0 0 1 20.88 2.61q9.735 2.61 13.919 5l4.181 2.44-8 21.92q-11.146-8.685-29.23-8.7t-27 6.791q-8.88 6.78-8.87 17.22 0 11.49 11.129 18.1a124.254 124.254 0 0 0 25.06 11.14q13.905 4.514 27.66 10.09a57.2 57.2 0 0 1 23.32 17.4Q704 180 704 199.45t-15.66 33.93q-15.66 14.43-45.76 14.44zm-155.58 0q-30.09 0-47.087-14.27-17.027-14.264-17.721-35.15l24.359-1q1.381 12.884 12.88 20a49.262 49.262 0 0 0 26.44 7.13q15 0 25.93-6.78t11-19.49q0-12.7-9.391-20.18a71.735 71.735 0 0 0-23-11.84Q476.775 161.875 463 157a63.981 63.981 0 0 1-24.19-15.31A39.369 39.369 0 0 1 426 111.93q0-17.58 14.089-32.72t45.761-15.13a80.477 80.477 0 0 1 20.88 2.61q9.75 2.611 13.919 5l4.18 2.44-8 21.92q-11.146-8.686-29.24-8.7t-27 6.79q-8.865 6.781-8.87 17.221 0 11.49 11.14 18.1a124.36 124.36 0 0 0 25 11.14q13.92 4.514 27.67 10.09a57.161 57.161 0 0 1 23.31 17.4q9.57 11.835 9.571 31.32t-15.66 33.929q-15.615 14.475-45.75 14.48zm759.582-78.75q-16.531-19.305-16.53-48.2v-12.79l25.06 11.381v4.87q0 18.75 11 29.749 10.965 11 29.41 11t28.88-11a34.15 34.15 0 0 0 2.07-2.389l22.659 10.27a66.165 66.165 0 0 1-5.28 7.28q-16.005 19.14-48.37 19.14t-48.899-19.311z"/>
        </g>
    </symbol>

    <symbol id="symbol-logo-en" viewBox="293.999 221.999 1386.421 489.41">
        <g transform="translate(294 222)">
            <circle fill="#ff9001" cx="35.01" cy="35.01" r="35.01" transform="translate(1316.4 47.49)"/>
            <path fill="#323f4c" d="M1252.52 489.41V373.42h14.73v13.46c6.9-9.45 17.79-14.26 30.28-14.26 24.881 0 42.99 17.311 42.99 43.26 0 26.12-18.1 43.421-42.95 43.421-12.01 0-22.59-4.6-29.641-13.8v43.91zm15.26-73.53c0 17.941 12.34 29.96 28.52 29.96s28.679-11.85 28.679-29.96c0-17.94-12.34-29.8-28.679-29.8s-28.52 11.86-28.52 29.8zm-345.95 62.17v-19.7h-70.99v19.7h-14.57v-33.16h4.5c12.18-.641 14.26-21.31 15.38-42.791l1.29-28.68h65.86v71.471h12.93v33.16zm-51.53-74.831c-.71 17.63-2.309 34.931-9.98 41.671h47.59v-58.01h-36.8zM443.53 458.19l.95-12.99a17.8 17.8 0 0 0 3.85.48c13.8 0 14.41-20.83 15.539-40.85l1.44-31.41h65.22v84.93H515.15v-71.47h-36.53l-.969 18.91c-1.44 29.96-5.45 53.84-24.671 53.84a35.976 35.976 0 0 1-9.45-1.44zM247.4 403.06c0-35.09 14.26-54.15 43.591-60.57l38.769-8.68 2.3 14.1-35.78 7.75c-22.119 4.8-32.539 15.7-34.14 37.81 7.21-10.89 19.23-17.14 33.49-17.14 24.04.04 40.86 16.969 40.86 41.31 0 24.989-17.94 41.98-43.9 41.98-29.01 0-45.19-20.83-45.19-56.56zm17.47 15.07c0 16.83 11.7 28.68 28.04 28.68s27.88-11.86 27.88-28.68-11.21-28.04-27.88-28.04-28.04 11.21-28.04 28.04zm683.59-2.23c0-25.32 18.1-43.269 42.56-43.269s41.99 17.629 41.99 43.709c.031 1.3-.17 3.22-.3 4.67h-68.88c1.921 14.89 13.94 24.83 30.77 24.83 9.94 0 18.26-3.37 24.511-10.26l8.5 9.94c-7.69 8.97-19.39 13.8-33.49 13.8-27.401 0-45.661-18.1-45.661-43.42zm15.37-5.95h54.48c-1.58-14.26-12.36-24.38-27.27-24.38-14.73 0-25.63 9.97-27.21 24.38zM350.6 415.9c0-25.32 18.1-43.269 42.62-43.269s41.98 17.629 41.98 43.709c0 1.3-.17 3.22-.33 4.67h-68.89c1.92 14.89 13.94 24.83 30.77 24.83 9.93 0 18.26-3.37 24.51-10.26l8.49 9.94c-7.68 8.97-19.38 13.8-33.48 13.8-27.41 0-45.67-18.1-45.67-43.42zm15.38-5.95h54.47c-1.6-14.26-12.33-24.38-27.24-24.38s-25.63 9.97-27.23 24.38zM143.9 415.9c0-25.32 18.1-43.269 42.611-43.269S228.5 390.26 228.5 416.34c0 1.3-.16 3.22-.32 4.67h-68.91c1.92 14.89 13.94 24.83 30.77 24.83 9.94 0 18.26-3.37 24.52-10.26l8.491 9.94c-7.691 8.97-19.391 13.8-33.49 13.8-27.401 0-45.661-18.1-45.661-43.42zm15.37-5.95h54.48c-1.6-14.26-12.34-24.38-27.249-24.38-14.721 0-25.631 9.97-27.231 24.38zm982.72 5.93c0-25.3 18.75-43.27 44.22-43.27s44.06 17.951 44.06 43.27-18.59 43.42-44.06 43.42-44.22-18.1-44.22-43.42zm15.55 0c0 18.1 12.34 29.96 28.679 29.96s28.52-11.85 28.52-29.96-12.18-29.8-28.52-29.8-28.679 11.7-28.679 29.8zM597.2 458.51l-36.8-.16v-84.93h15.38v28.68l23.88.16c21.57.17 33.11 10.25 33.11 27.73 0 18.258-12.623 28.522-35.047 28.522-.174 0-.347 0-.523-.002zm-21.48-11.84l20.191.16c13.939.14 21.15-5.63 21.15-17.01 0-11.21-7.051-16.02-21.15-16.18l-20.191-.32zm542.71 11.68l-28.52-35.9h-17.62v35.9h-15.39v-84.93h15.39v35.9h17.94l27.6-35.9h16.5l-32.2 40.871 34.45 44.059zm-356.829 0v-61.86l-51.951 61.86h-14.07v-84.93h15.38v61.86l52.08-61.861h13.94v84.93zm-657.6 0l-.16-81.66-40.58 68.04h-7.34L15.38 377.1v81.25H0V346.19h13.13l46.79 78.83 46.16-78.83h13.13l.16 112.16zm1197.618-228.02a19.45 19.45 0 1 1 19.451 19.45 19.451 19.451 0 0 1-19.451-19.45zm-54.469 0a19.45 19.45 0 1 1 19.45 19.45 19.45 19.45 0 0 1-19.45-19.45zm-453.63 18.45q-60.554 0-60.56-50.81v-71.34q0-28.184 17.581-43.85T797 67.12q28.875 0 45.06 15.49t16.179 43v47.68L758 178.48v18.1q0 29.58 34.8 29.58 21.57 0 47.33-14.27l9.39 20.53q-26.764 16.35-55.947 16.36zM768.56 99.49Q757.955 108.879 758 127v27.84l74.77-3.84v-26.8q0-18.434-11.479-26.27-11.453-7.83-26.742-7.83h-.059q-15.314 0-25.93 9.39zM192.1 248.6V133.41q0-29.925-19.48-36.54a46.728 46.728 0 0 0-12.36-2.091q-5 0-11.31.35T130.86 100l-10.79 5.22a51.608 51.608 0 0 1 4.521 21.93V248.6h-25V133.76q0-16.351-7.66-26.1-9.8-12.871-29.281-12.881a74.142 74.142 0 0 0-37.589 10.44V248.6H0V74.25h23.67L24 83a87.033 87.033 0 0 1 43.35-11.181q23.49 0 39.489 16.35 29.581-16.7 56-16.7 25.064 0 39.669 16t14.622 40.711V248.6zm881.49-19.83q-16.529-19.305-16.53-48.2v-45.94q0-33.06 16.88-50.63t47.85-17.581q31 0 48 18.27t17.07 49.94v45.94q0 29.234-16 48.37t-48.37 19.141q-32.369 0-48.9-19.31zm8.52-94.14v49.42q0 18.8 11 29.75t29.41 11q18.436 0 28.88-11t10.4-29.75v-49.42q0-44.19-39.32-44.19-40.38 0-40.37 44.19zm-803.52 94.14q-16.531-19.305-16.53-48.2v-45.94q0-33.06 16.88-50.63t47.85-17.58q31.005 0 48 18.27t17.07 49.94v45.94q0 29.234-16 48.37t-48.37 19.14q-32.37 0-48.9-19.31zm8.52-94.14v49.42q0 18.8 11 29.75t29.41 11q18.436 0 28.88-11t10.4-29.75v-49.42q0-44.19-39.32-44.19-40.38 0-40.37 44.19zm603.78 109.01V0h25.05v75.86q16.351-9.389 37.24-9.39t36.54 6.61q29.565 13.576 29.58 50.11V189q0 34.456-27.15 48.38-20.535 10.44-45.93 10.44a403.3 403.3 0 0 1-55.33-4.18zm47.32-151.79a74.942 74.942 0 0 0-22.271 8.35V222q17.4 2.445 26.28 2.44c5.91 0 9.221-.11 9.911-.35q17.4 0 29.93-9.05t12.53-25.73V127q0-16.709-9.049-26.1-10.1-10.784-29.93-10.789zM642.518 247.82q-30.06 0-47.1-14.27T577.69 198.4l24.36-1q1.38 12.884 12.87 20t26.45 7.13q15 0 25.93-6.78t11-19.49q0-12.7-9.4-20.18a71.647 71.647 0 0 0-23-11.84q-13.559-4.335-27.31-9.22a63.974 63.974 0 0 1-24.19-15.31 39.351 39.351 0 0 1-12.88-29.75q0-17.58 14.1-32.719t45.76-15.13a80.4 80.4 0 0 1 20.88 2.61q9.735 2.61 13.919 5l4.181 2.44-8 21.92q-11.146-8.685-29.23-8.7t-27 6.791q-8.88 6.78-8.87 17.22 0 11.49 11.129 18.1a124.254 124.254 0 0 0 25.06 11.14q13.905 4.514 27.66 10.09a57.2 57.2 0 0 1 23.32 17.4Q704 180 704 199.45t-15.66 33.93q-15.66 14.43-45.76 14.44zm-155.58 0q-30.09 0-47.087-14.27-17.027-14.264-17.721-35.15l24.359-1q1.381 12.884 12.88 20a49.262 49.262 0 0 0 26.44 7.13q15 0 25.93-6.78t11-19.49q0-12.7-9.391-20.18a71.735 71.735 0 0 0-23-11.84Q476.775 161.875 463 157a63.981 63.981 0 0 1-24.19-15.31A39.369 39.369 0 0 1 426 111.93q0-17.58 14.089-32.72t45.761-15.13a80.477 80.477 0 0 1 20.88 2.61q9.75 2.611 13.919 5l4.18 2.44-8 21.92q-11.146-8.686-29.24-8.7t-27 6.79q-8.865 6.781-8.87 17.221 0 11.49 11.14 18.1a124.36 124.36 0 0 0 25 11.14q13.92 4.514 27.67 10.09a57.161 57.161 0 0 1 23.31 17.4q9.57 11.835 9.571 31.32t-15.66 33.929q-15.615 14.475-45.75 14.48zm759.582-78.75q-16.531-19.305-16.53-48.2v-12.79l25.06 11.381v4.87q0 18.75 11 29.749 10.965 11 29.41 11t28.88-11a34.15 34.15 0 0 0 2.07-2.389l22.659 10.27a66.165 66.165 0 0 1-5.28 7.28q-16.005 19.14-48.37 19.14t-48.899-19.311z"/>
        </g>
    </symbol>


    <symbol id="pay-visa" viewBox="0 0 1000.046 323.653">
        <path fill="#00579f"
              d="M433.35228125 318.98380797h-81.01073521L403.01146398 5.67909768h81.00630524zM727.02339507 13.33850388C711.04451817 6.99922668 685.70069927-.000115 654.36314031-.000115c-80.00070362 0-136.33654437 42.66054465-136.68208149 103.65227661-.66449446 44.99956517 40.33481403 69.99341698 70.9990186 84.997702 31.34198894 15.3321023 41.9960502 25.33938894 41.9960502 39.0058251-.31895735 20.98916517-25.32609905 30.66420458-48.64985477 30.66420458-32.3431606 0-49.67317624-4.98813845-76.00930687-16.66552118l-10.66735115-5.0058583-11.33627557 70.33009417c19.00011174 8.6561479 54.00568015 16.33770391 90.34909743 16.6743811 85.00213196 0 140.341231-42.00048014 140.99686554-106.99689875.3233873-35.66563292-21.32584236-62.99407528-67.99993358-85.32551927-28.33404399-14.33536059-45.68620945-24.00154007-45.68620945-38.6691479.33224723-13.33418893 14.67646775-26.99176517 46.66080133-26.99176517 26.33613063-.66892442 45.68620945 5.66149285 60.34495735 11.99634008l7.32715897 3.32690229 11.01731822-67.65439647zM834.69364822 207.9910825c6.67152443-17.99894008 32.3431606-87.66010982 32.3431606-87.66010982-.3366772.66892442 6.65823453-18.33118731 10.65849121-29.99528015l5.66149284 26.99619513s15.34096222 74.99484532 18.67229447 90.65919484h-67.33543912zM934.69120528 5.67909768h-62.66182805c-19.32349905 0-34.00439676 5.66149285-42.34158731 25.99502348L709.35670223 318.979378h85.00213196s13.99425344-38.6691479 17.00219838-46.99747853H915.3721362c2.32573062 10.99959838 9.66617948 46.99747853 9.66617948 46.99747853h75.00813521L934.69120528 5.67909768zm-650.01291563 0l-79.33620916 213.64383043-8.66943778-43.32946908c-14.66760783-49.99656355-60.66834466-104.31677108-112.00275706-131.3262561l72.6691147 273.9843578h85.66662642L370.34048612 5.67909769h-85.66219647z"/>
        <path fill="#faa61a"
              d="M131.67179414 5.67909768H1.33341981L9.1e-7 12.00951495c101.67208312 25.99945344 169.00752224 88.67014141 196.6726418 163.99723397l-28.334044-143.9915206c-4.66475114-20.01014333-19.00011173-25.67606613-36.66680457-26.33613064z"/>
    </symbol>

    <symbol id="pay-paypal" viewBox="0 0 124 33">
        <path fill="#253B80"
            d="M46.211 6.749h-6.839c-.468 0-.866.34-.939.802l-2.766 17.537c-.055.346.213.658.564.658h3.265c.468 0 .866-.34.939-.803l.746-4.73c.072-.463.471-.803.938-.803h2.165c4.505 0 7.105-2.18 7.784-6.5.306-1.89.013-3.375-.872-4.415-.972-1.142-2.696-1.746-4.985-1.746zM47 13.154c-.374 2.454-2.249 2.454-4.062 2.454h-1.032l.724-4.583c.043-.277.283-.481.563-.481h.473c1.235 0 2.4 0 3.002.704.359.42.469 1.044.332 1.906zm19.654-.079h-3.275c-.279 0-.52.204-.563.481l-.145.916-.229-.332c-.709-1.029-2.29-1.373-3.868-1.373-3.619 0-6.71 2.741-7.312 6.586-.313 1.918.132 3.752 1.22 5.031.998 1.176 2.426 1.666 4.125 1.666 2.916 0 4.533-1.875 4.533-1.875l-.146.91c-.055.348.213.66.562.66h2.95c.469 0 .865-.34.939-.803l1.77-11.209c.056-.345-.211-.658-.561-.658zm-4.565 6.374c-.316 1.871-1.801 3.127-3.695 3.127-.951 0-1.711-.305-2.199-.883-.484-.574-.668-1.391-.514-2.301.295-1.855 1.805-3.152 3.67-3.152.93 0 1.686.309 2.184.892.499.589.697 1.411.554 2.317zm22.007-6.374h-3.291c-.314 0-.609.156-.787.417l-4.539 6.686-1.924-6.425c-.121-.402-.492-.678-.912-.678h-3.234c-.393 0-.666.384-.541.754l3.625 10.638-3.408 4.811c-.268.379.002.9.465.9h3.287c.312 0 .604-.152.781-.408l10.946-15.8c.262-.378-.007-.895-.468-.895z"/>
        <path fill="#179BD7"
            d="M94.992 6.749h-6.84c-.467 0-.865.34-.938.802l-2.766 17.537c-.055.346.213.658.562.658h3.51c.326 0 .605-.238.656-.562l.785-4.971c.072-.463.471-.803.938-.803h2.164c4.506 0 7.105-2.18 7.785-6.5.307-1.89.012-3.375-.873-4.415-.971-1.142-2.694-1.746-4.983-1.746zm.789 6.405c-.373 2.454-2.248 2.454-4.062 2.454h-1.031l.725-4.583c.043-.277.281-.481.562-.481h.473c1.234 0 2.4 0 3.002.704.359.42.468 1.044.331 1.906zm19.653-.079h-3.273c-.281 0-.52.204-.562.481l-.145.916-.23-.332c-.709-1.029-2.289-1.373-3.867-1.373-3.619 0-6.709 2.741-7.311 6.586-.312 1.918.131 3.752 1.219 5.031 1 1.176 2.426 1.666 4.125 1.666 2.916 0 4.533-1.875 4.533-1.875l-.146.91c-.055.348.213.66.564.66h2.949c.467 0 .865-.34.938-.803l1.771-11.209c.054-.345-.214-.658-.565-.658zm-4.565 6.374c-.314 1.871-1.801 3.127-3.695 3.127-.949 0-1.711-.305-2.199-.883-.484-.574-.666-1.391-.514-2.301.297-1.855 1.805-3.152 3.67-3.152.93 0 1.686.309 2.184.892.501.589.699 1.411.554 2.317zm8.426-12.219l-2.807 17.858c-.055.346.213.658.562.658h2.822c.469 0 .867-.34.939-.803l2.768-17.536c.055-.346-.213-.659-.562-.659h-3.16c-.279.001-.519.205-.562.482z"/>
        <path fill="#253B80"
            d="M7.266 29.154l.523-3.322-1.165-.027H1.061L4.927 1.292c.012-.074.051-.143.108-.192.057-.049.13-.076.206-.076h9.38c3.114 0 5.263.648 6.385 1.927.526.6.861 1.227 1.023 1.917.17.724.173 1.589.007 2.644l-.012.077v.676l.526.298c.443.235.795.504 1.065.812.45.513.741 1.165.864 1.938.127.795.085 1.741-.123 2.812-.24 1.232-.628 2.305-1.152 3.183-.482.809-1.096 1.48-1.825 2-.696.494-1.523.869-2.458 1.109-.906.236-1.939.355-3.072.355h-.73c-.522 0-1.029.188-1.427.525-.399.344-.663.814-.744 1.328l-.055.299-.924 5.855-.042.215c-.011.068-.03.102-.058.125-.025.021-.061.035-.096.035H7.266z"/>
        <path fill="#179BD7"
            d="M23.048 7.667c-.028.179-.06.362-.096.55-1.237 6.351-5.469 8.545-10.874 8.545H9.326c-.661 0-1.218.48-1.321 1.132L6.596 26.83l-.399 2.533c-.067.428.263.814.695.814h4.881c.578 0 1.069-.42 1.16-.99l.048-.248.919-5.832.059-.32c.09-.572.582-.992 1.16-.992h.73c4.729 0 8.431-1.92 9.513-7.476.452-2.321.218-4.259-.978-5.622-.362-.411-.811-.752-1.336-1.03z"/>
        <path fill="#222D65"
            d="M21.754 7.151c-.189-.055-.384-.105-.584-.15-.201-.044-.407-.083-.619-.117-.742-.12-1.555-.177-2.426-.177h-7.352c-.181 0-.353.041-.507.115-.339.163-.591.484-.652.877L8.05 17.605l-.045.289c.103-.652.66-1.132 1.321-1.132h2.752c5.405 0 9.637-2.195 10.874-8.545.037-.188.068-.371.096-.55-.313-.166-.652-.308-1.017-.429-.09-.03-.183-.059-.277-.087z"/>
        <path fill="#253B80"
            d="M9.614 7.699c.061-.393.313-.714.652-.876.155-.074.326-.115.507-.115h7.352c.871 0 1.684.057 2.426.177.212.034.418.073.619.117.2.045.395.095.584.15.094.028.187.057.278.086.365.121.704.264 1.017.429.368-2.347-.003-3.945-1.272-5.392C20.378.682 17.853 0 14.622 0h-9.38c-.66 0-1.223.48-1.325 1.133L.01 25.898c-.077.49.301.932.795.932h5.791l1.454-9.225 1.564-9.906z"/>
    </symbol>

    <symbol id="pay-maestro" viewBox="0 0 200 155.56">
        <path fill="#0099df"
            d="M198.2 100.13v-2.4h-.63l-.73 1.65-.72-1.65h-.62v2.4h.44v-1.81l.68 1.56h.46l.67-1.56v1.8zm-3.97 0v-2h.8v-.4h-2.05v.4h.8v2z"/>
        <path fill="#6c6bbd"
            d="M127.14 110.44H73.07V13.25h54.07z"/>
        <path fill="#eb001b"
            d="M76.53 61.84a61.7 61.7 0 0 1 23.6-48.6 61.8 61.8 0 0 0-100 48.6 61.8 61.8 0 0 0 100 48.6 61.7 61.7 0 0 1-23.6-48.6"/>
        <path fill="#0099df"
            d="M200.08 61.84a61.8 61.8 0 0 1-100 48.6c14.37-11.33 23.6-28.89 23.6-48.6s-9.23-37.28-23.6-48.6a61.8 61.8 0 0 1 100 48.6"/>
        <path fill="#231f20"
            d="M145.38 137.88c.72 0 1.75.14 2.54.45l-1.1 3.37a5.78 5.78 0 0 0-2.23-.42c-2.34 0-3.5 1.51-3.5 4.22v9.2h-3.58v-16.4h3.54v1.99a4.84 4.84 0 0 1 4.33-2.4m-13.2 3.67h-5.83v7.41c0 1.65.58 2.75 2.37 2.75.92 0 2.09-.31 3.15-.93l1.03 3.06a8.37 8.37 0 0 1-4.46 1.27c-4.22 0-5.7-2.27-5.7-6.08v-7.48h-3.33v-3.26h3.33v-4.98h3.6v4.98h5.84zm-45.7 3.5c.38-2.37 1.82-3.99 4.37-3.99 2.3 0 3.77 1.45 4.15 3.99zm12.23 1.44c-.04-5.12-3.2-8.62-7.8-8.62-4.8 0-8.17 3.5-8.17 8.62 0 5.22 3.5 8.61 8.42 8.61 2.47 0 4.73-.61 6.72-2.3l-1.75-2.64a7.8 7.8 0 0 1-4.77 1.72c-2.3 0-4.4-1.07-4.9-4.02h12.18c.03-.45.07-.89.07-1.37m15.69-4.01c-1-.63-3.02-1.42-5.12-1.42-1.95 0-3.12.73-3.12 1.93 0 1.1 1.23 1.4 2.78 1.61l1.68.24c3.57.52 5.73 2.03 5.73 4.91 0 3.13-2.74 5.36-7.48 5.36-2.68 0-5.15-.69-7.1-2.13l1.67-2.78a8.75 8.75 0 0 0 5.47 1.71c2.43 0 3.74-.72 3.74-1.99 0-.92-.93-1.44-2.89-1.71l-1.68-.24c-3.67-.52-5.67-2.17-5.67-4.84 0-3.26 2.68-5.26 6.84-5.26 2.6 0 4.98.59 6.69 1.72zm44.03-1.22a5.4 5.4 0 0 0-2.05.39 4.91 4.91 0 0 0-2.72 2.75c-.26.65-.4 1.37-.4 2.15 0 .78.14 1.49.4 2.14a4.96 4.96 0 0 0 4.77 3.14c.73 0 1.42-.13 2.04-.39a4.9 4.9 0 0 0 2.74-2.75c.27-.65.4-1.36.4-2.14s-.13-1.5-.4-2.15a5 5 0 0 0-4.78-3.14m0-3.39a9.1 9.1 0 0 1 3.53.67 8.35 8.35 0 0 1 4.67 4.57c.45 1.05.68 2.2.68 3.44s-.23 2.38-.67 3.44a8.36 8.36 0 0 1-4.68 4.57c-1.08.44-2.26.66-3.53.66s-2.45-.22-3.54-.66a8.69 8.69 0 0 1-2.8-1.82 8.51 8.51 0 0 1-2.52-6.2 8.45 8.45 0 0 1 5.32-8 9.24 9.24 0 0 1 3.54-.67m-92.8 8.62c0-2.88 1.89-5.25 4.97-5.25 2.96 0 4.95 2.26 4.95 5.25s-2 5.25-4.95 5.25c-3.08 0-4.97-2.36-4.97-5.25m13.28 0v-8.2h-3.57v1.99a6.23 6.23 0 0 0-5.18-2.4c-4.6 0-8.2 3.6-8.2 8.61s3.6 8.62 8.2 8.62c2.33 0 4.05-.93 5.18-2.4v1.99h3.57zm-20.11 8.2v-10.3c0-3.87-2.48-6.48-6.46-6.52a6.35 6.35 0 0 0-5.77 2.92 6.03 6.03 0 0 0-5.42-2.92c-1.75 0-3.47.52-4.8 2.44v-2.02h-3.58v16.4h3.6v-9.1c0-2.84 1.59-4.35 4.02-4.35 2.37 0 3.58 1.54 3.58 4.32v9.14h3.6v-9.1c0-2.85 1.65-4.36 4.01-4.36 2.45 0 3.61 1.54 3.61 4.32v9.14zm112.36-1.22v.4h.37a.4.4 0 0 0 .2-.05c.05-.03.08-.09.08-.15s-.03-.12-.08-.15a.34.34 0 0 0-.2-.05zm.37-.29c.2 0 .34.05.45.13s.16.2.16.36a.4.4 0 0 1-.13.3.62.62 0 0 1-.36.16l.5.57h-.39l-.46-.57h-.14v.57h-.33v-1.52zm-.1 2.03a1.29 1.29 0 0 0 1.16-.77 1.3 1.3 0 0 0-.26-1.4c-.12-.1-.25-.2-.4-.26-.15-.07-.32-.1-.5-.1s-.34.03-.5.1a1.2 1.2 0 0 0-.67.67c-.07.15-.1.32-.1.5s.03.34.1.5a1.25 1.25 0 0 0 1.17.77m0-2.9a1.62 1.62 0 0 1 .64 3.13 1.66 1.66 0 0 1-2.31-1.5 1.6 1.6 0 0 1 1.01-1.5c.21-.1.43-.14.66-.14"/>
    </symbol>

    <symbol id="pay-mastercard" viewBox="0 0 200 155.58">
        <path fill="#231f20"
            d="M195.93 153.4v.4h.37a.4.4 0 0 0 .2-.05c.05-.03.08-.09.08-.15s-.03-.12-.07-.15a.36.36 0 0 0-.2-.05zm.38-.29c.19 0 .34.05.44.13s.16.2.16.36a.4.4 0 0 1-.12.3.61.61 0 0 1-.36.16l.5.57h-.4l-.45-.57h-.15v.57h-.32v-1.52zm-.1 2.04a1.29 1.29 0 0 0 1.16-.78 1.3 1.3 0 0 0-.27-1.4c-.11-.1-.25-.2-.4-.27a1.31 1.31 0 0 0-.5-.09 1.26 1.26 0 0 0-.9.37 1.22 1.22 0 0 0-.37.9c0 .17.04.34.1.5a1.23 1.23 0 0 0 1.17.77m0-2.9a1.63 1.63 0 0 1 1.18.47 1.6 1.6 0 0 1 .36 1.79 1.69 1.69 0 0 1-.88.87 1.66 1.66 0 0 1-2.32-1.5 1.6 1.6 0 0 1 1.01-1.5c.2-.1.42-.14.66-.14m-153.1-5.82c0-2.89 1.89-5.26 4.97-5.26 2.96 0 4.95 2.27 4.95 5.26s-2 5.25-4.95 5.25c-3.08 0-4.97-2.37-4.97-5.25m13.28 0v-8.2h-3.57v1.98a6.22 6.22 0 0 0-5.18-2.4c-4.6 0-8.2 3.6-8.2 8.62 0 5.01 3.6 8.61 8.2 8.61a6.2 6.2 0 0 0 5.18-2.4v2h3.57zm120.58 0c0-2.89 1.89-5.26 4.98-5.26 2.95 0 4.94 2.27 4.94 5.26s-1.99 5.25-4.94 5.25c-3.1 0-4.98-2.37-4.98-5.25m13.29 0v-14.8h-3.57v8.58a6.22 6.22 0 0 0-5.19-2.4c-4.6 0-8.2 3.6-8.2 8.62 0 5.01 3.6 8.61 8.2 8.61 2.34 0 4.06-.92 5.19-2.4v2h3.57zm-89.58-5.43c2.3 0 3.78 1.45 4.16 3.99h-8.52c.38-2.37 1.82-3.99 4.36-3.99m.07-3.19c-4.8 0-8.17 3.5-8.17 8.62 0 5.22 3.5 8.61 8.41 8.61 2.48 0 4.74-.61 6.73-2.3l-1.75-2.64a7.85 7.85 0 0 1-4.77 1.72c-2.3 0-4.4-1.07-4.91-4.02h12.19c.03-.45.07-.9.07-1.37-.04-5.12-3.2-8.62-7.8-8.62m43.09 8.62c0-2.89 1.89-5.26 4.98-5.26 2.95 0 4.94 2.27 4.94 5.26s-2 5.25-4.94 5.25c-3.1 0-4.98-2.37-4.98-5.25m13.28 0v-8.2h-3.56v1.98a6.23 6.23 0 0 0-5.19-2.4c-4.6 0-8.2 3.6-8.2 8.62 0 5.01 3.6 8.61 8.2 8.61 2.34 0 4.05-.92 5.19-2.4v2h3.56zm-33.43 0c0 4.98 3.46 8.61 8.75 8.61a8.6 8.6 0 0 0 5.9-1.95l-1.7-2.89a7.21 7.21 0 0 1-4.3 1.48c-2.85-.03-4.95-2.1-4.95-5.25s2.1-5.22 4.95-5.26c1.54 0 2.95.52 4.3 1.48l1.7-2.88a8.6 8.6 0 0 0-5.9-1.96c-5.29 0-8.75 3.64-8.75 8.62m46-8.62c-2.06 0-3.4.96-4.33 2.4v-1.99h-3.53v16.41h3.57v-9.2c0-2.71 1.17-4.22 3.5-4.22.72 0 1.48.1 2.23.41l1.1-3.36a7.6 7.6 0 0 0-2.54-.45m-95.65 1.72c-1.72-1.13-4.08-1.72-6.7-1.72-4.15 0-6.83 2-6.83 5.25 0 2.68 2 4.33 5.67 4.84l1.68.24c1.96.28 2.88.8 2.88 1.72 0 1.27-1.3 2-3.74 2a8.74 8.74 0 0 1-5.46-1.72l-1.68 2.78a11.84 11.84 0 0 0 7.1 2.12c4.75 0 7.5-2.23 7.5-5.35 0-2.89-2.17-4.4-5.74-4.9l-1.68-.25c-1.55-.2-2.78-.51-2.78-1.61 0-1.2 1.16-1.93 3.12-1.93 2.1 0 4.12.8 5.12 1.41zm46.04-1.72c-2.06 0-3.4.96-4.32 2.4v-1.99h-3.54v16.41h3.57v-9.2c0-2.71 1.17-4.22 3.5-4.22.72 0 1.48.1 2.23.41l1.1-3.36a7.6 7.6 0 0 0-2.54-.45m-30.45.41h-5.84v-4.98h-3.6v4.98h-3.33v3.26h3.33v7.49c0 3.8 1.47 6.07 5.7 6.07 1.54 0 3.33-.47 4.46-1.26l-1.03-3.06a6.6 6.6 0 0 1-3.16.93c-1.78 0-2.37-1.1-2.37-2.75v-7.42h5.84zm-53.35 16.41v-10.3c0-3.88-2.48-6.49-6.46-6.52a6.35 6.35 0 0 0-5.77 2.92 6.02 6.02 0 0 0-5.42-2.92 5.4 5.4 0 0 0-4.8 2.44v-2.03h-3.58v16.41h3.6v-9.1c0-2.84 1.58-4.36 4.02-4.36 2.37 0 3.57 1.55 3.57 4.33v9.13h3.61v-9.1c0-2.84 1.65-4.36 4.02-4.36 2.43 0 3.6 1.55 3.6 4.33v9.13z"/>
        <path fill="#f79410"
            d="M198.13 100.05v-2.4h-.62l-.73 1.65-.72-1.65h-.63v2.4h.45v-1.81l.67 1.56h.46l.68-1.56v1.8zm-3.97 0v-2h.8v-.4h-2.04v.4h.8v2z"/>
        <path fill="#ff5f00"
            d="M127.08 110.36H73V13.17h54.08z"/>
        <path fill="#eb001b"
            d="M76.47 61.76a61.7 61.7 0 0 1 23.6-48.6 61.8 61.8 0 0 0-100 48.6 61.8 61.8 0 0 0 100 48.6 61.7 61.7 0 0 1-23.6-48.6"/>
        <path fill="#f79e1b"
            d="M200.02 61.76a61.8 61.8 0 0 1-100 48.6c14.37-11.33 23.6-28.89 23.6-48.6s-9.23-37.28-23.6-48.6a61.8 61.8 0 0 1 100 48.6"/>
    </symbol>

    <symbol id="pay-yandex" viewBox="20.5 187.5 798.1 216.9">
        <path fill="#000" d="M465 289.9h2.6c3.2 0 7.8-.6 11-3.2 1.9-1.9 3.9-5.2 5.2-8.4l2.6-6.5c1.3-2.6 2.6-6.5 5.2-9.1 3.9-3.9 8.4-3.9 12.3-3.9l.6 7.8c-1.9 0-4.5.6-5.8 1.9-1.3 1.3-1.9 3.2-3.2 6.5l-3.2 7.1c-1.3 2.6-2.6 5.8-4.5 7.1-1.9 1.9-4.5 3.2-7.8 3.9v.6c3.9.6 7.1 2.6 9.1 4.5 2.6 2.6 3.9 5.8 5.2 8.4l4.5 10.4c1.3 3.9 2.6 5.8 3.9 7.1 1.9 1.3 3.9 1.9 5.2 1.9l-.6 8.4c-3.9.6-8.4 0-12.3-3.2-2.6-1.9-3.9-5.8-5.2-9.7l-5.2-11c-2.6-6.5-5.2-8.4-5.8-9.1-3.2-2.6-6.5-3.2-9.7-3.2h-4.5v34.3h-9.7V260h9.7v29.8h.4zm83.5 19.4c-.6 0-8.4 0-12.3 1.3-2.6.6-5.8 1.9-7.8 3.2-1.3 1.3-2.6 2.6-2.6 5.2s1.3 4.5 1.9 5.2c1.9 1.9 4.5 1.9 6.5 1.9 1.9 0 3.9 0 5.8-1.3 2.6-1.3 5.8-3.9 7.8-6.5l.7-9zM520 288.6c6.5-4.5 13-5.8 18.8-5.8 7.8 0 11.7 1.9 14.2 4.5 3.9 3.9 3.9 9.7 3.9 13.6v16.8c0 2.6 0 5.8 1.3 7.1.6.6 2.6 1.3 3.9 1.3l-1.3 7.1c-3.2.6-6.5 0-8.4-1.3-1.3-1.3-2.6-3.2-3.2-5.2-1.3 1.9-3.9 3.9-6.5 4.5-2.6 1.3-5.8 1.9-10.4 1.9-3.9 0-8.4-.6-11.7-3.9-1.9-1.9-4.5-5.8-4.5-10.4s1.9-8.4 4.5-10.4c3.9-3.9 10.4-5.2 13.6-5.8 4.5-.6 9.7-.6 13.6-.6v-.6c0-2.6 0-6.5-2.6-8.4-1.9-1.9-5.2-1.9-7.1-1.9-3.2 0-5.2.6-7.8 1.3-1.9.6-4.5 1.3-6.5 2.6l-3.8-6.4zm92.6 37.5c-5.8 7.1-13.6 7.8-18.1 7.8-5.8 0-12.3-.6-18.1-6.5-3.2-3.2-6.5-9.1-6.5-18.8 0-5.2 1.3-13 7.1-18.8 5.2-5.2 11-7.1 17.5-7.1 5.8 0 11.7 1.3 17.5 5.8l-5.2 5.8c-5.2-3.9-9.7-4.5-12.3-4.5-4.5 0-7.8 1.9-9.7 3.9-3.9 3.9-5.2 9.7-5.2 14.9 0 6.5 2.6 11 4.5 13.6 2.6 2.6 5.8 3.9 9.7 3.9 2.6 0 7.8-.6 12.3-5.2l6.5 5.2zm50.6 0c-5.8 7.1-13.6 7.8-18.1 7.8-5.8 0-12.3-.6-18.1-6.5-3.2-3.2-6.5-9.1-6.5-18.8 0-5.2 1.3-13 7.1-18.8 5.2-5.2 11-7.1 17.5-7.1 5.8 0 11.7 1.3 17.5 5.8l-5.2 5.8c-5.2-3.9-9.7-4.5-12.3-4.5-4.5 0-7.8 1.9-9.7 3.9-3.9 3.9-5.2 9.7-5.2 14.9 0 6.5 2.6 11 4.5 13.6 2.6 2.6 5.8 3.9 9.7 3.9 2.6 0 7.8-.6 12.3-5.2l6.5 5.2zm40.7-16.8c-.6 0-8.4 0-12.3 1.3-2.6.6-5.8 1.9-7.8 3.2-1.3 1.3-2.6 2.6-2.6 5.2s1.3 4.5 1.9 5.2c1.9 1.9 4.5 1.9 6.5 1.9s3.9 0 5.8-1.3c2.6-1.3 5.8-3.9 7.8-6.5l.7-9zm-28.4-20.7c6.5-4.5 13-5.8 18.8-5.8 7.8 0 11.7 1.9 14.2 4.5 3.9 3.9 3.9 9.7 3.9 13.6v16.8c0 2.6 0 5.8 1.3 7.1.6.6 2.6 1.3 3.9 1.3l-1.3 7.1c-3.2.6-6.5 0-8.4-1.3-1.3-1.3-2.6-3.2-3.2-5.2-1.3 1.9-3.9 3.9-6.5 4.5-2.6 1.3-5.8 1.9-10.4 1.9-3.9 0-8.4-.6-11.7-3.9-1.9-1.9-4.5-5.8-4.5-10.4 0-4.5 1.9-8.4 4.5-10.4 3.9-3.9 10.4-5.2 13.6-5.8 4.5-.6 9.7-.6 13.6-.6v-.6c0-2.6 0-6.5-2.6-8.4-1.9-1.9-5.2-1.9-7.1-1.9-3.2 0-5.2.6-7.8 1.3-1.9.6-4.5 1.3-6.5 2.6l-3.8-6.4z"/>
        <path fill="#FE0000" d="M69.9 238.1H53.8c-16.2 0-29.8 12.3-29.8 36.3 0 14.2 6.5 24.6 18.8 30.4l-22 40.2c-.6 1.3 0 2.6 1.3 2.6h10.4c.6 0 1.3 0 1.9-1.3l20.1-39.5h7.1v39.5c0 .6.6 1.3 1.3 1.3H72c.6 0 1.3-.6 1.3-1.3V239.4c-1.4-1.3-2.1-1.3-3.4-1.3zm-9 58.9h-6.5c-9.7 0-18.8-7.1-18.8-24.6 0-18.1 8.4-25.3 17.5-25.3h7.1l.7 49.9z"/>
        <path fill="#000" d="M124.3 273.7h-9.1c-.6 0-1.3.6-1.3 1.3v27.8H97.1V275c0-.6 0-1.3-1.3-1.3h-9.1c-.6 0-1.3.6-1.3 1.3v70.6c0 .6 0 1.3 1.3 1.3h9.1c.6 0 1.3-.6 1.3-1.3v-33.7H114v33.7c0 .6.6 1.3 1.3 1.3h9.1c.6 0 1.3-.6 1.3-1.3V275c-.1-.7-.7-1.3-1.4-1.3m204.7 68l-1.3-5.2c0-.6 0-.6-.6-.6s-4.5 1.3-10.4 1.3c-11 0-16.2-10.4-16.2-27.2 0-14.9 4.5-29.1 12.3-29.1 1.9 0 4.5.6 8.4 3.9.6.6.6.6 1.3.6.6 0 .6 0 1.3-1.3l3.9-6.5c0-.6.6-.6.6-1.3 0-.6-.6-1.3-1.3-1.3-5.8-3.2-9.7-3.9-13.6-3.9-13.6 0-24 16.2-24 41.4 0 22 10.4 34.3 24.6 34.3 5.9.1 12.4-2.5 15-5.1 0 1.3 0 .6 0 0m-62.8-35l17.5-31.7c0-.6 0-1.3-.6-1.3h-8.4c-2.6 0-3.2.6-3.9 2.6l-13 27.2c-.6 1.3-1.3 2.6-1.9 3.2V275c0-.6 0-1.3-.6-1.3h-9.1c-.6 0-.6.6-.6 1.3v70.6c0 .6 0 1.3.6 1.3h9.1c.6 0 .6-.6.6-1.3v-36.3c.6 0 .6.6 1.3 1.3l16.2 33.7c.6 1.9 1.9 1.9 3.9 1.9h9.1c.6 0 .6-.6.6-1.3l-20.8-38.2zm-82.9 30.4h-1.9c-1.9 0-2.6-.6-2.6-2.6V275c0-.6 0-1.3-.6-1.3h-29.1c-.6 0-1.3.6-1.3 1.3v5.2c0 17.5-1.3 40.2-10.4 57h-3.2c-.6 0-1.3.6-1.3 1.3v21.4c0 .6.6 1.3 1.3 1.3h7.1c1.3 0 1.9-1.3 1.9-1.9V347h31.1v13c0 .6.6 1.3 1.3 1.3h7.1c.6 0 1.9-.6 1.9-1.9v-20.1c0-1.5-.7-2.2-1.3-2.2zm-15.6 0H147c7.1-12.3 10.4-26.6 11-44 0-3.9.6-7.8.6-10.4h9.1v54.4zm45.4-65.4c-15.5 0-22.7 19.4-22.7 41.4s9.7 35 24 35c7.1 0 13.6-2.6 16.2-4.5.6 0 .6-.6.6-1.3l-1.3-5.2c0-.6-.6-.6-1.3-.6-.6 0-4.5 1.3-10.4 1.3-11 0-16.2-9.7-16.2-22.7v-3.2s5.8.6 9.1.6h21.4v-5.8c0-22.7-8.4-35-19.4-35zm-2 31.8c-3.2 0-8.4.6-8.4.6v-4.5c1.3-12.3 4.5-18.8 9.1-18.8 4.5 0 7.8 6.5 8.4 17.5v5.2h-9.1z"/>
        <path fill="#FC0" d="M755.8 187.5h-375v216.9h375l62.8-108.2-62.8-108.7zm-13 18.8l52.5 90-52.5 90H400.9v-180h341.9z"/>
    </symbol>

    <symbol id="social-vk" viewBox="0 0 1000 1000">
        <path
        d="M500 10C229.4 10 10 229.4 10 500s219.4 490 490 490 490-219.4 490-490S770.6 10 500 10zm188.4 552.8s43.3 42.8 54 62.6c.3.4.5.8.6 1 4.3 7.3 5.4 13 3.2 17.2-3.6 7-15.8 10.5-20 10.8h-76.6c-5.3 0-16.4-1.4-29.9-10.7-10.4-7.2-20.6-19.1-30.5-30.7-14.9-17.3-27.7-32.2-40.7-32.2-1.6 0-3.3.3-4.8.8-9.8 3.2-22.4 17.1-22.4 54.4 0 11.6-9.2 18.3-15.7 18.3h-35.1c-11.9 0-74.2-4.2-129.3-62.3-67.5-71.2-128.2-214-128.7-215.3-3.8-9.2 4.1-14.2 12.7-14.2h77.3c10.3 0 13.7 6.3 16 11.8 2.8 6.5 12.9 32.3 29.5 61.3 26.9 47.3 43.4 66.5 56.6 66.5 2.5 0 4.8-.7 7.1-1.8 17.3-9.6 14-71.1 13.3-83.9 0-2.4-.1-27.5-8.9-39.6-6.3-8.7-17.1-12-23.6-13.3 1.7-2.5 5.5-6.3 10.2-8.6 11.8-5.9 33.2-6.8 54.4-6.8h11.8c23 .3 28.9 1.8 37.2 3.9 16.8 4 17.2 14.9 15.7 52.1-.5 10.6-.9 22.5-.9 36.6 0 3.1-.2 6.3-.2 9.8-.5 18.9-1.1 40.4 12.3 49.3 1.7 1.1 3.7 1.7 5.8 1.7 4.6 0 18.6 0 56.5-65 16.6-28.7 29.5-62.5 30.4-65 .8-1.3 3-5.4 5.7-7 2.1-1.2 4.9-1.5 6.3-1.5h90.9c9.9 0 16.7 1.5 18 5.3 2.2 6.1-.4 24.6-41.9 80.8-7 9.3-13.2 17.4-18.5 24.4-37.7 49.4-37.7 51.9 2.2 89.3z"/>
    </symbol>

    <symbol id="social-in" viewBox="0 0 33 32">
        <path
            d="M16.555 19.07a3.186 3.186 0 0 0 3.182-3.181 3.17 3.17 0 0 0-.602-1.854 3.177 3.177 0 0 0-2.578-1.327 3.18 3.18 0 0 0-2.58 1.326 3.166 3.166 0 0 0-.602 1.854 3.183 3.183 0 0 0 3.18 3.181zm6.946-7.073V8.934l-.4.002-2.664.008.01 3.064z"/>
        <path
            d="M16.555 0C7.795 0 .667 7.128.667 15.889c0 8.76 7.127 15.888 15.888 15.888 8.76 0 15.889-7.128 15.889-15.888C32.444 7.128 25.317 0 16.555 0zm9.036 14.035v7.398a3.496 3.496 0 0 1-3.492 3.493H11.012a3.496 3.496 0 0 1-3.493-3.493V10.346a3.496 3.496 0 0 1 3.493-3.493h11.086a3.496 3.496 0 0 1 3.493 3.493v3.689z"/>
        <path
            d="M21.498 15.889a4.949 4.949 0 0 1-4.943 4.942 4.948 4.948 0 0 1-4.942-4.942c0-.656.13-1.282.364-1.854H9.279v7.398c0 .956.776 1.73 1.732 1.73h11.087c.954 0 1.732-.774 1.732-1.73v-7.398h-2.7a4.85 4.85 0 0 1 .368 1.854z"/>
    </symbol>

    <symbol id="social-fb" viewBox="0 0 33 32">
        <path
            d="M16.222 0C7.461 0 .333 7.128.333 15.889c0 8.76 7.128 15.888 15.889 15.888 8.76 0 15.889-7.128 15.889-15.888C32.11 7.128 24.984 0 16.222 0zm3.951 16.448h-2.585v9.213h-3.83v-9.213h-1.82v-3.256h1.82v-2.107c0-1.508.717-3.865 3.866-3.865l2.838.01v3.162h-2.06c-.336 0-.812.167-.812.887v1.913h2.918l-.335 3.256z"/>
    </symbol>

    <symbol id="social-pi" viewBox="0 0 999.9 999.9">
        <path
            d="M0 500c2.6-141.9 52.7-260.4 150.4-355.4S364.6 1.3 500 0c145.8 2.6 265.3 52.4 358.4 149.4 93.1 97 140.3 213.9 141.6 350.6-2.6 140.6-52.7 258.8-150.4 354.5-97.7 95.6-214.2 144.1-349.6 145.4-46.9 0-93.7-7.2-140.6-21.5 9.1-14.3 18.2-30.6 27.3-48.8 10.4-22.1 23.4-63.8 39.1-125 3.9-16.9 9.8-39.7 17.6-68.4 9.1 15.6 24.7 29.9 46.9 43 58.6 27.3 120.4 24.7 185.5-7.8 67.7-39.1 114.6-99.6 140.6-181.6 23.4-85.9 20.5-165.7-8.8-239.2C778.3 277 725.9 224 650.4 191.4c-95-27.3-187.5-24.4-277.3 8.8s-152.3 90.2-187.5 170.9C176.5 401 171 430.7 169 460c-2 29.3-1 57.9 2.9 85.9s13.7 53.1 29.3 75.2 36.5 39.1 62.5 50.8c6.5 2.6 11.7 2.6 15.6 0 5.2-2.6 10.4-13 15.6-31.2 5.2-18.2 7.2-30.6 5.9-37.1-1.3-2.6-3.9-7.2-7.8-13.7-27.3-44.3-36.5-90.8-27.3-139.6 9.1-48.8 29.3-90.2 60.5-124 48.2-43 104.5-66.4 168.9-70.3 64.4-3.9 119.5 13.7 165 52.7 24.7 28.6 40.7 63.1 47.8 103.5s7.2 79.1 0 116.2c-7.2 37.1-19.9 71.9-38.1 104.5-32.6 50.8-71 76.8-115.2 78.1-26-1.3-47.2-11.4-63.5-30.3s-21.2-40.7-14.6-65.4c2.6-14.3 10.4-42.3 23.4-84 13-41.7 20.2-72.9 21.5-93.7-3.9-49.5-26.7-74.9-68.4-76.2-32.6 3.9-56.6 18.6-72.3 43.9s-24.1 54.4-25.4 86.9c3.9 37.8 9.8 63.8 17.6 78.1-14.3 58.6-25.4 105.5-33.2 140.6-2.6 9.1-9.8 37.1-21.5 84s-18.2 82.7-19.5 107.4V957C206.3 914 133.3 851.9 80 770.5 26.7 689.1 0 598.9 0 500z"/>
    </symbol>

    <symbol id="social-you" viewBox="0 0 1000 1000">
        <path
            d="M448.21 12.46C274.84 29.82 118.62 145.11 49.83 306.26c-80.36 188.37-36.86 404.59 110.15 546.67 75.43 72.86 164.79 116.36 273.23 133.29 31.93 4.93 102.22 4.93 135.01 0 108.01-16.29 203.15-64.07 278.58-139.51 38.57-38.36 68.15-79.5 92.79-128.79 22.72-45.64 38.57-96.43 46.72-149.79 4.93-32.79 4.93-103.08 0-135.01-10.71-68.79-31.29-127.93-63.22-181.51C832.66 99.89 671.29 8.38 496.64 10.1c-16.08.22-37.72 1.29-48.43 2.36zm-79.94 231.01c5.57 20.57 10.71 39.86 11.36 42.86 1.93 7.71 3.21 4.29 15-41.36l10.29-40.07h18.86c10.5 0 19.07.21 19.07.64 0 .21-9.64 29.36-21.43 64.72l-21.43 64.29v88.93h-36.43v-86.79l-21.43-64.29c-11.79-35.36-21.43-64.93-21.43-66 0-.86 8.36-1.29 18.64-1.07l18.64.64 10.29 37.5zm146.37 19.07c10.5 4.71 19.5 14.79 22.5 25.5 1.71 5.14 2.14 25.72 1.71 58.29l-.64 50.36-5.79 10.07c-8.14 13.71-21 19.93-41.36 19.71-22.29-.21-35.57-7.93-42.86-25.07-4.93-11.79-4.71-110.15.21-120.86 4.07-8.14 14.57-17.14 23.79-19.93 10.93-3.21 33.22-2.35 42.44 1.93zm82.5 64.29c0 53.36.43 64.5 3.21 66.65 3.64 3 9.43 1.5 16.93-4.5l5.57-4.29V262.76h34.29v160.72h-34.28V408.7l-10.71 7.29c-18.22 12.22-34.72 12.43-43.72.43-4.29-5.79-4.5-8.79-5.14-79.93l-.64-73.72h34.5v64.06zm44.57 161.8c60 6.21 78.43 12 86.15 27 10.71 21 16.93 69.43 16.93 131.79 0 64.93-6.43 113.58-18 133.29-6.22 10.29-17.36 15.43-42.86 19.71-73.72 12.64-254.58 14.36-344.8 3.21-37.29-4.5-52.5-8.79-60.43-16.93-15.21-15-23.14-62.15-23.14-139.29 0-73.5 7.5-121.51 21.43-138.01 10.71-12.84 41.57-18.2 138-24.63 31.93-2.14 195.86.86 226.72 3.86z"/>
        <path
            d="M482.71 289.76c-3 2.79-3.43 10.71-3.43 53.14 0 35.79.64 50.36 2.57 52.29 3.86 3.86 15.64 3 19.5-1.29 3.21-3.43 3.64-10.29 3.64-52.5 0-47.57 0-48.43-4.72-51.65-6.21-4.27-13.28-4.27-17.56.01zM303.56 561.7v13.93h32.14v167.16h32.14V575.63h32.14v-27.86h-96.44v13.93zm214.29 83.58v97.5h13.93c13.71 0 13.93 0 13.93-6 0-3.21.86-4.71 1.71-3.43 3.21 5.14 16.93 11.57 24.43 11.57 10.71 0 17.36-3.43 22.29-11.36 3.64-6.22 4.07-11.36 4.07-60.43 0-47.57-.43-54.43-3.86-61.5-7.72-15.21-26.36-18.43-41.36-7.07l-7.28 5.57v-62.36h-27.86v97.51zm47.36-22.72c5.14 4.07 5.14 4.5 5.14 49.08 0 47.79-.86 51.86-10.5 51.86-2.57 0-6.86-1.5-9.43-3.43-4.71-3.21-4.71-4.07-4.71-49.07s0-45.86 4.71-49.08c6.22-4.5 8.79-4.29 14.79.64zm78.43-25.07c-11.14 3-24 15.64-27 26.36-3 11.14-3 83.15 0 94.29 5.14 18.21 19.07 28.71 38.36 28.93 27 0 42.86-15.86 42.86-43.5v-7.93h-13.93c-13.29 0-13.93.21-13.93 5.14 0 16.93-6.43 24.86-18 21.86-6.86-1.71-9.86-11.57-9.86-33v-15.43h55.72v-23.14c-.21-31.07-4.93-43.29-19.5-50.79-7.93-4.08-25.07-5.58-34.72-2.79zm22.29 26.57c1.5 1.93 3.21 9 3.64 16.07l.86 12.64h-28.72l.86-12.64c1.07-15 4.07-19.5 13.5-19.5 3.86 0 8.14 1.5 9.86 3.43zm-250.51 43.93l.64 68.79 5.14 4.07c9.22 7.5 24.22 4.93 37.07-6.43 8.36-7.29 10.29-6.86 10.29 2.36 0 6 .21 6 12.86 6h12.86V599.2h-25.72v108.44l-5.79 5.57c-7.29 6.64-13.5 8.79-17.79 6-2.79-1.71-3.21-11.36-3.86-61.07l-.64-58.93h-25.72l.66 68.78z"/>
    </symbol>

    <symbol id="social-zen" viewBox="0 0 454 454">
        <circle cx="227" cy="227" r="227"/>
        <path fill="#CDCDCD" d="M309.797 185.408L178.94 299.17l-33.602-38.651 130.859-113.762z"/>
        <path fill="#FFF" d="M146.28 78L310 134.336v51.214l-163.72-56.335zM145 260.45l163.721 56.336V368L145 311.665z"/>
    </symbol>

    <symbol id="social-ok" viewBox="0 0 97.8 97.8">
        <path
            d="M48.9 40.5c4.7 0 8.4-3.8 8.4-8.4 0-4.7-3.7-8.4-8.4-8.4s-8.5 3.8-8.4 8.5c0 4.6 3.7 8.3 8.4 8.3z"/>
        <path
            d="M48.9 0C21.9 0 0 21.9 0 48.9s21.9 48.9 48.9 48.9 48.9-21.9 48.9-48.9S75.9 0 48.9 0zm0 14.9c9.5 0 17.2 7.8 17.1 17.4 0 9.4-7.8 17-17.3 17-9.4 0-17.1-7.8-17.1-17.3.1-9.5 7.8-17.2 17.3-17.1zm19.3 41.2c-2.1 2.2-4.6 3.7-7.5 4.8-2.7 1-5.6 1.6-8.5 1.9.4.5.6.7.9 1l11.8 11.8c1.3 1.3 1.6 3 .9 4.6-.8 1.7-2.6 2.8-4.4 2.7-1.1-.1-2-.6-2.8-1.4-3-3-6-5.9-8.9-8.9-.8-.9-1.2-.7-2 .1-3 3.1-6 6.1-9 9.1-1.4 1.3-3 1.6-4.6.8-1.7-.8-2.8-2.5-2.7-4.3.1-1.2.6-2.1 1.4-2.9l11.6-11.6.9-.9c-5.3-.6-10-1.8-14.1-5l-1.5-1.2c-1.8-1.7-2-3.7-.6-5.7 1.2-1.7 3.2-2.2 5.3-1.2.4.2.8.4 1.2.7 7.6 5.2 18 5.4 25.6.2.8-.6 1.6-1 2.5-1.3 1.8-.5 3.5.2 4.5 1.8 1.4 1.7 1.4 3.4 0 4.9z"/>
    </symbol>

    <symbol id="social-embed-google" version="1" viewBox="0 0 512 512">
        <path d="M458 217c2 14 4 28 4 44 0 120-81 205-202 205a210 210 0 1 1 141-365l-60 59c-22-21-50-32-81-32-69 0-125 59-125 128s56 128 125 128c63 0 106-36 115-85H260v-82h198z"/>
    </symbol>

    <symbol id="social-embed-ok" viewBox="0 0 95.481 95.481">
        <path d="M43.041 67.254c-7.402-.772-14.076-2.595-19.79-7.064-.709-.556-1.441-1.092-2.088-1.713-2.501-2.402-2.753-5.153-.774-7.988 1.693-2.426 4.535-3.075 7.489-1.682.572.27 1.117.607 1.639.969 10.649 7.317 25.278 7.519 35.967.329 1.059-.812 2.191-1.474 3.503-1.812 2.551-.655 4.93.282 6.299 2.514 1.564 2.549 1.544 5.037-.383 7.016-2.956 3.034-6.511 5.229-10.461 6.761-3.735 1.448-7.826 2.177-11.875 2.661.611.665.899.992 1.281 1.376 5.498 5.524 11.02 11.025 16.5 16.566 1.867 1.888 2.257 4.229 1.229 6.425-1.124 2.4-3.64 3.979-6.107 3.81-1.563-.108-2.782-.886-3.865-1.977-4.149-4.175-8.376-8.273-12.441-12.527-1.183-1.237-1.752-1.003-2.796.071-4.174 4.297-8.416 8.528-12.683 12.735-1.916 1.889-4.196 2.229-6.418 1.15-2.362-1.145-3.865-3.556-3.749-5.979.08-1.639.886-2.891 2.011-4.014 5.441-5.433 10.867-10.88 16.295-16.322.359-.362.694-.746 1.217-1.305z"/>
        <path d="M47.55 48.329c-13.205-.045-24.033-10.992-23.956-24.218C23.67 10.739 34.505-.037 47.84 0c13.362.036 24.087 10.967 24.02 24.478-.068 13.199-10.971 23.897-24.31 23.851zm12.001-24.186c-.023-6.567-5.253-11.795-11.807-11.801-6.609-.007-11.886 5.316-11.835 11.943.049 6.542 5.324 11.733 11.896 11.709 6.552-.023 11.768-5.285 11.746-11.851z"/>
    </symbol>

    <symbol id="social-embed-fb" viewBox="0 0 430.113 430.114">
        <path d="M158.081 83.3v59.218h-43.385v72.412h43.385v215.183h89.122V214.936h59.805s5.601-34.721 8.316-72.685H247.54V92.74c0-7.4 9.717-17.354 19.321-17.354h48.557V.001h-66.021C155.878-.004 158.081 72.48 158.081 83.3z"/>
    </symbol>

    <symbol id="social-embed-vk" viewBox="0 0 548.358 548.358">
        <path d="M545.451 400.298c-.664-1.431-1.283-2.618-1.858-3.569-9.514-17.135-27.695-38.167-54.532-63.102l-.567-.571-.284-.28-.287-.287h-.288c-12.18-11.611-19.893-19.418-23.123-23.415-5.91-7.614-7.234-15.321-4.004-23.13 2.282-5.9 10.854-18.36 25.696-37.397 7.807-10.089 13.99-18.175 18.556-24.267 32.931-43.78 47.208-71.756 42.828-83.939l-1.701-2.847c-1.143-1.714-4.093-3.282-8.846-4.712-4.764-1.427-10.853-1.663-18.278-.712l-82.224.568c-1.332-.472-3.234-.428-5.712.144l-3.713.859-1.431.715-1.136.859c-.952.568-1.999 1.567-3.142 2.995-1.137 1.423-2.088 3.093-2.848 4.996-8.952 23.031-19.13 44.444-30.553 64.238-7.043 11.803-13.511 22.032-19.418 30.693-5.899 8.658-10.848 15.037-14.842 19.126-4 4.093-7.61 7.372-10.852 9.849-3.237 2.478-5.708 3.525-7.419 3.142-1.715-.383-3.33-.763-4.859-1.143-2.663-1.714-4.805-4.045-6.42-6.995-1.622-2.95-2.714-6.663-3.285-11.136-.568-4.476-.904-8.326-1-11.563-.089-3.233-.048-7.806.145-13.706.198-5.903.287-9.897.287-11.991 0-7.234.141-15.085.424-23.555.288-8.47.521-15.181.716-20.125.194-4.949.284-10.185.284-15.705s-.336-9.849-1-12.991a44.442 44.442 0 0 0-2.99-9.137c-1.335-2.95-3.289-5.232-5.853-6.852-2.569-1.618-5.763-2.902-9.564-3.856-10.089-2.283-22.936-3.518-38.547-3.71-35.401-.38-58.148 1.906-68.236 6.855-3.997 2.091-7.614 4.948-10.848 8.562-3.427 4.189-3.905 6.475-1.431 6.851 11.422 1.711 19.508 5.804 24.267 12.275l1.715 3.429c1.334 2.474 2.666 6.854 3.999 13.134 1.331 6.28 2.19 13.227 2.568 20.837.95 13.897.95 25.793 0 35.689-.953 9.9-1.853 17.607-2.712 23.127-.859 5.52-2.143 9.993-3.855 13.418-1.715 3.426-2.856 5.52-3.428 6.28-.571.76-1.047 1.239-1.425 1.427a21.387 21.387 0 0 1-7.71 1.431c-2.667 0-5.901-1.334-9.707-4-3.805-2.666-7.754-6.328-11.847-10.992-4.093-4.665-8.709-11.184-13.85-19.558-5.137-8.374-10.467-18.271-15.987-29.691l-4.567-8.282c-2.855-5.328-6.755-13.086-11.704-23.267-4.952-10.185-9.329-20.037-13.134-29.554-1.521-3.997-3.806-7.04-6.851-9.134l-1.429-.859c-.95-.76-2.475-1.567-4.567-2.427a30.301 30.301 0 0 0-6.567-1.854l-78.229.568c-7.994 0-13.418 1.811-16.274 5.428l-1.143 1.711c-.571.953-.859 2.475-.859 4.57 0 2.094.571 4.664 1.714 7.707 11.42 26.84 23.839 52.725 37.257 77.659 13.418 24.934 25.078 45.019 34.973 60.237 9.897 15.229 19.985 29.602 30.264 43.112 10.279 13.515 17.083 22.176 20.412 25.981 3.333 3.812 5.951 6.662 7.854 8.565l7.139 6.851c4.568 4.569 11.276 10.041 20.127 16.416 8.853 6.379 18.654 12.659 29.408 18.85 10.756 6.181 23.269 11.225 37.546 15.126 14.275 3.905 28.169 5.472 41.684 4.716h32.834c6.659-.575 11.704-2.669 15.133-6.283l1.136-1.431c.764-1.136 1.479-2.901 2.139-5.276.668-2.379 1-5 1-7.851-.195-8.183.428-15.558 1.852-22.124 1.423-6.564 3.045-11.513 4.859-14.846 1.813-3.33 3.859-6.14 6.136-8.418 2.282-2.283 3.908-3.666 4.862-4.142.948-.479 1.705-.804 2.276-.999 4.568-1.522 9.944-.048 16.136 4.429 6.187 4.473 11.99 9.996 17.418 16.56 5.425 6.57 11.943 13.941 19.555 22.124 7.617 8.186 14.277 14.271 19.985 18.274l5.708 3.426c3.812 2.286 8.761 4.38 14.853 6.283 6.081 1.902 11.409 2.378 15.984 1.427l73.087-1.14c7.229 0 12.854-1.197 16.844-3.572 3.998-2.379 6.373-5 7.139-7.851.764-2.854.805-6.092.145-9.712-.677-3.611-1.344-6.136-2.008-7.563z"/>
    </symbol>

    <symbol id="product-rating" viewBox="0 0 120 28">
        <path d="M0 0v28h120V0H0zm18.2 24L12 20.6 5.8 24 7 16.8l-5-5.1 6.9-1.1L12 4l3.1 6.6 6.9 1.1-5 5.1 1.2 7.2zm24 0L36 20.6 29.8 24l1.2-7.2-5-5.1 6.9-1.1L36 4l3.1 6.6 6.9 1.1-5 5.1 1.2 7.2zm24 0L60 20.6 53.8 24l1.2-7.2-5-5.1 6.9-1.1L60 4l3.1 6.6 6.9 1.1-5 5.1 1.2 7.2zm24 0L84 20.6 77.8 24l1.2-7.2-5-5.1 6.9-1.1L84 4l3.1 6.6 6.9 1.1-5 5.1 1.2 7.2zm24 0l-6.2-3.4-6.2 3.4 1.2-7.2-5-5.1 6.9-1.1L108 4l3.1 6.6 6.9 1.1-5 5.1 1.2 7.2z"></path>
    </symbol>

    <symbol id="symbol-spinner" viewBox="0 0 512 512">
        <path d="M256 418.34c-7.919 0-14.342 6.421-14.342 14.342v64.977c0 7.921 6.422 14.342 14.342 14.342s14.342-6.421 14.342-14.342v-64.977c0-7.921-6.423-14.342-14.342-14.342zM256 0c-7.919 0-14.342 6.421-14.342 14.342v64.977c0 7.921 6.422 14.342 14.342 14.342s14.342-6.421 14.342-14.342V14.342C270.342 6.421 263.919 0 256 0zM174.83 396.592c-6.863-3.96-15.63-1.611-19.591 5.249l-32.488 56.271c-3.961 6.86-1.611 15.631 5.249 19.591a14.274 14.274 0 0 0 7.157 1.923c4.956 0 9.778-2.573 12.434-7.172l32.488-56.271c3.961-6.86 1.611-15.631-5.249-19.591zM384 34.3c-6.862-3.961-15.63-1.611-19.591 5.249L331.921 95.82c-3.961 6.86-1.611 15.631 5.249 19.591a14.341 14.341 0 0 0 19.591-5.249l32.488-56.271c3.961-6.86 1.611-15.632-5.249-19.591zM115.408 337.17c-3.96-6.858-12.731-9.21-19.591-5.249l-56.271 32.488c-6.86 3.96-9.21 12.731-5.249 19.591 2.658 4.601 7.476 7.172 12.434 7.172 2.432 0 4.899-.62 7.156-1.923l56.271-32.488c6.861-3.96 9.211-12.731 5.25-19.591zM477.702 128c-3.961-6.858-12.731-9.209-19.591-5.249l-56.271 32.488c-6.86 3.96-9.21 12.731-5.249 19.591 2.658 4.601 7.476 7.172 12.434 7.172 2.434 0 4.899-.62 7.156-1.923l56.271-32.488c6.86-3.96 9.211-12.731 5.25-19.591zM79.318 241.658H14.342C6.422 241.658 0 248.079 0 256s6.422 14.342 14.342 14.342h64.977c7.919 0 14.342-6.421 14.342-14.342-.001-7.921-6.423-14.342-14.343-14.342zM497.658 241.658h-64.977c-7.919 0-14.342 6.421-14.342 14.342s6.422 14.342 14.342 14.342h64.977c7.919 0 14.342-6.421 14.342-14.342s-6.422-14.342-14.342-14.342zM110.159 155.239l-56.271-32.488c-6.861-3.961-15.631-1.611-19.591 5.249-3.961 6.86-1.611 15.631 5.249 19.591l56.273 32.488a14.273 14.273 0 0 0 7.156 1.923c4.957 0 9.778-2.571 12.433-7.172 3.961-6.86 1.611-15.631-5.249-19.591zM472.454 364.409l-56.271-32.488c-6.862-3.961-15.631-1.609-19.591 5.249-3.961 6.86-1.611 15.631 5.249 19.591l56.271 32.488a14.273 14.273 0 0 0 7.156 1.923c4.957 0 9.778-2.571 12.434-7.172 3.962-6.86 1.612-15.631-5.248-19.591zM180.079 95.819l-32.488-56.271c-3.961-6.86-12.731-9.21-19.591-5.249-6.86 3.96-9.21 12.731-5.249 19.591l32.488 56.273c2.658 4.601 7.476 7.172 12.434 7.172 2.432 0 4.899-.621 7.157-1.925 6.86-3.96 9.21-12.732 5.249-19.591zM389.249 458.112l-32.488-56.271c-3.961-6.858-12.73-9.21-19.591-5.249-6.86 3.96-9.21 12.731-5.249 19.591l32.488 56.271c2.657 4.601 7.476 7.172 12.434 7.172 2.432 0 4.899-.62 7.157-1.923 6.86-3.96 9.21-12.731 5.249-19.591z"/>
        <path d="M256 0c-7.919 0-14.342 6.421-14.342 14.342v64.977c0 7.921 6.422 14.342 14.342 14.342s14.342-6.421 14.342-14.342V14.342C270.342 6.421 263.919 0 256 0zM256 418.34c-7.919 0-14.342 6.421-14.342 14.342v64.977c0 7.921 6.422 14.342 14.342 14.342s14.342-6.421 14.342-14.342v-64.977c0-7.921-6.423-14.342-14.342-14.342z"/>
    </symbol>

    <symbol id="symbol-check" viewBox="0 0 24 24">
        <path d="M9 16.2L4.8 12l-1.4 1.4L9 19 21 7l-1.4-1.4L9 16.2z"/>
    </symbol>

    <symbol id="symbol-chevron-down" viewBox="0 0 24 24">
        <path d="M7.41 8.59L12 13.17l4.59-4.58L18 10l-6 6-6-6 1.41-1.41z"/>
    </symbol>

    <symbol id="symbol-chevron-left" viewBox="0 0 24 24">
        <path d="M15.41 16.59L10.83 12l4.58-4.59L14 6l-6 6 6 6 1.41-1.41z"/>
    </symbol>

    <symbol id="symbol-chevron-right" viewBox="0 0 24 24">
        <path d="M10 6L8.59 7.41 13.17 12l-4.58 4.59L10 18l6-6z"/>
    </symbol>


    <symbol id="symbol-tile" viewBox="0 0 24 24">
        <path d="M4 11h5V5H4v6zm0 7h5v-6H4v6zm6 0h5v-6h-5v6zm6 0h5v-6h-5v6zm-6-7h5V5h-5v6zm6-6v6h5V5h-5z"/>
    </symbol>

    <symbol id="symbol-list" viewBox="0 0 24 24">
        <path d="M4 18h17v-6H4v6zM4 5v6h17V5H4z"/>
    </symbol>

    <symbol id="symbol-letter" viewBox="0 0 24 24">
        <path d="M20 4H4c-1.1 0-1.99.9-1.99 2L2 18c0 1.1.9 2 2 2h16c1.1 0 2-.9 2-2V6c0-1.1-.9-2-2-2zm0 4l-8 5-8-5V6l8 5 8-5v2z"/>
    </symbol>


    <symbol id="symbol-filters" viewBox="0 0 6.88 6.88">
        <path class="cls-1" d="M2.68.69a1 1 0 0 0-1-.69 1 1 0 0 0-1 .69H0v.69h.76a1 1 0 0 0 1 .68 1 1 0 0 0 1-.68h4.2V.69zm-1 .69a.35.35 0 0 1-.3-.38.32.32 0 0 1 .34-.31.32.32 0 0 1 .34.31.32.32 0 0 1-.34.38zM4.47 2.41a1 1 0 0 0-1 .69H0v.68h3.51a1 1 0 0 0 1.92 0h1.45V3.1H5.43a1 1 0 0 0-.96-.69zm0 1.37a.32.32 0 0 1-.34-.34.32.32 0 0 1 .34-.34.32.32 0 0 1 .34.34.32.32 0 0 1-.34.34zM3.1 4.81a1 1 0 0 0-1 .69H0v.69h2.13a1 1 0 0 0 1.93 0h2.82V5.5H4.06a1 1 0 0 0-.96-.69zm0 1.38a.35.35 0 1 1 0-.69.35.35 0 0 1 0 .69z"/><circle class="cls-1" cx="1.63" cy="1.07" r=".6"/><circle class="cls-1" cx="4.47" cy="3.44" r=".6"/><circle class="cls-1" cx="3.1" cy="5.85" r=".6"/>
    </symbol>

    <symbol id="symbol-filters-2" viewBox="0 0 18 12">
        <path d="M7 12h4v-2H7v2zM0 0v2h18V0H0zm3 7h12V5H3v2z"/>
    </symbol>

    <symbol id="symbol-add" viewBox="0 0 24 24">
        <path d="M19 13h-6v6h-2v-6H5v-2h6V5h2v6h6v2z"/>
    </symbol>

    <symbol id="symbol-kebab-horizontal" viewBox="0 0 24 24">
        <path d="M6 10c-1.1 0-2 .9-2 2s.9 2 2 2 2-.9 2-2-.9-2-2-2zm12 0c-1.1 0-2 .9-2 2s.9 2 2 2 2-.9 2-2-.9-2-2-2zm-6 0c-1.1 0-2 .9-2 2s.9 2 2 2 2-.9 2-2-.9-2-2-2z"/>
    </symbol>

    <symbol id="symbol-thumb-up" viewBox="0 0 24 24">
        <path d="M1 21h4V9H1v12zm22-11c0-1.1-.9-2-2-2h-6.31l.95-4.57.03-.32c0-.41-.17-.79-.44-1.06L14.17 1 7.59 7.59C7.22 7.95 7 8.45 7 9v10c0 1.1.9 2 2 2h9c.83 0 1.54-.5 1.84-1.22l3.02-7.05c.09-.23.14-.47.14-.73v-2z"/>
    </symbol>

    <symbol id="symbol-thumb-down" viewBox="0 0 24 24">
        <path fill="none" d="M0 0h24v24H0z"/><path d="M15 3H6c-.83 0-1.54.5-1.84 1.22l-3.02 7.05c-.09.23-.14.47-.14.73v2c0 1.1.9 2 2 2h6.31l-.95 4.57-.03.32c0 .41.17.79.44 1.06L9.83 23l6.59-6.59c.36-.36.58-.86.58-1.41V5c0-1.1-.9-2-2-2zm4 0v12h4V3h-4z"/>
    </symbol>

    <symbol id="symbol-create" viewBox="0 0 24 24">
        <path d="M3 17.25V21h3.75L17.81 9.94l-3.75-3.75L3 17.25zM20.71 7.04a.996.996 0 0 0 0-1.41l-2.34-2.34a.996.996 0 0 0-1.41 0l-1.83 1.83 3.75 3.75 1.83-1.83z"/>
    </symbol>

    <symbol id="symbol-auth" viewBox="0 0 24 24">
        <path d="M10.09 15.59L11.5 17l5-5-5-5-1.41 1.41L12.67 11H3v2h9.67l-2.58 2.59zM19 3H5a2 2 0 0 0-2 2v4h2V5h14v14H5v-4H3v4a2 2 0 0 0 2 2h14c1.1 0 2-.9 2-2V5c0-1.1-.9-2-2-2z"/>
    </symbol>

    <symbol id="review-invocation-arrow" viewBox="0 0 58 40">
        <path d="M56.4 39.4c-.4 0-39.2-.7-54.4-33.1.1 1.8.2 3.8.5 5.2.1.5-.2 1.1-.8 1.2-.5.1-1.1-.2-1.2-.8C-.2 8.4 0 2 0 1.4 0 1 .2.7.5.5c.4-.3.9-.2 1.2.1 0 0 4.5 4.2 8.4 5.8.5.2.8.8.5 1.3s-.7.8-1.2.6C7.3 7.4 5.2 6 3.5 4.7c14.4 32 52.5 32.7 52.9 32.7.6 0 1 .5 1 1 0 .6-.4 1-1 1z"/>
    </symbol>

    <symbol id="symbol-cart-empty" viewBox="784 635.5 21.25 20.5">
        <path d="M789.995 652a2 2 0 1 0 2.005 2 2 2 0 0 0-2.005-2zM784 636v2h2l3.6 7.59-1.35 2.45a1.933 1.933 0 0 0-.25.96 2.006 2.006 0 0 0 2 2h12v-2h-11.58a.248.248 0 0 1-.25-.25l.03-.12.9-1.63h7.45a1.991 1.991 0 0 0 1.75-1.03l3.58-6.49a.977.977 0 0 0 .12-.48 1 1 0 0 0-1-1h-14.79l-.94-2zm15.995 16a2 2 0 1 0 2.005 2 2 2 0 0 0-2.005-2z"/>
    </symbol>

    <symbol id="symbol-cart-add" viewBox="784 635.5 21.25 20.5">
        <path d="M799.995 656a2 2 0 0 1-2-2 2 2 0 0 1 2-2 2.005 2.005 0 0 1 2.005 2 2 2 0 0 1-2.005 2zm-10 0a2 2 0 0 1-2-2 2 2 0 0 1 2-2 2.005 2.005 0 0 1 2.005 2 2 2 0 0 1-2 2zm12-5h-12a2 2 0 0 1-2-2 1.934 1.934 0 0 1 .25-.96l1.35-2.45-3.6-7.59h-2v-2h3.27l.94 2h3.845a7.917 7.917 0 0 0-.8 3.5 7.964 7.964 0 0 0 2.191 5.5H791.1l-.9 1.63-.031.12a.248.248 0 0 0 .25.25h6.04a7.97 7.97 0 0 0 2.791.5 7.966 7.966 0 0 0 2.75-.485v1.984zm-2.75-3.5a6.007 6.007 0 0 1-6-6 6.006 6.006 0 0 1 6-6 6.007 6.007 0 0 1 6 6 6.007 6.007 0 0 1-5.995 6zm-1-5v3h2v-3h3v-2h-3v-3h-2v3h-3v2z"/>
    </symbol>

    <symbol id="symbol-cart-success" viewBox="784 635.5 21.25 20.5">
        <path d="M799.995 656a2 2 0 0 1-2-2 2 2 0 0 1 2-2 2.005 2.005 0 0 1 2.005 2 2 2 0 0 1-2.005 2zm-10 0a2 2 0 0 1-2-2 2 2 0 0 1 2-2 2.005 2.005 0 0 1 2.005 2 2 2 0 0 1-2 2zm12-5h-12a2 2 0 0 1-2-2 1.934 1.934 0 0 1 .25-.96l1.35-2.45-3.6-7.59h-2v-2h3.27l.94 2h3.845a7.917 7.917 0 0 0-.8 3.5 7.964 7.964 0 0 0 2.191 5.5H791.1l-.9 1.63-.031.12a.248.248 0 0 0 .25.25h6.04a7.97 7.97 0 0 0 2.791.5 7.966 7.966 0 0 0 2.75-.485v1.984zm-2.75-3.5a6.007 6.007 0 0 1-6-6 6.006 6.006 0 0 1 6-6 6.007 6.007 0 0 1 6 6 6.007 6.007 0 0 1-5.995 6zm-3.126-7.052L795 641.573l3.273 3.272 5.222-5.221-1.124-1.124-4.1 4.1-2.149-2.15z"/>
    </symbol>

    <symbol id="symbol-zoom-in" viewBox="0 0 24 24">
        <path d="M15.5 14h-.79l-.28-.27A6.471 6.471 0 0 0 16 9.5 6.5 6.5 0 1 0 9.5 16c1.61 0 3.09-.59 4.23-1.57l.27.28v.79l5 4.99L20.49 19l-4.99-5zm-6 0C7.01 14 5 11.99 5 9.5S7.01 5 9.5 5 14 7.01 14 9.5 11.99 14 9.5 14zm.5-7H9v2H7v1h2v2h1v-2h2V9h-2z"/>
    </symbol>

    <symbol id="symbol-projects" viewBox="0 0 20 20">
        <path d="M4.872.16H.762A.762.762 0 0 0 0 .924v4.11c0 .42.34.762.762.762h4.11c.42 0 .761-.342.761-.762V.923a.761.761 0 0 0-.761-.762zM11.953.16h-4.11c-.42 0-.761.342-.761.763v4.11c0 .42.341.762.761.762h4.11a.762.762 0 0 0 .762-.762V.923a.762.762 0 0 0-.762-.762zM19.196.16h-4.11a.762.762 0 0 0-.761.763v4.11c0 .42.34.762.762.762h4.11c.42 0 .76-.342.76-.762V.923c0-.42-.34-.762-.76-.762zM4.872 7.082H.762A.762.762 0 0 0 0 7.843v4.11c0 .42.34.762.762.762h4.11c.42 0 .761-.341.761-.762v-4.11c0-.42-.34-.761-.761-.761zM11.953 7.082h-4.11c-.42 0-.761.34-.761.761v4.11c0 .42.341.762.761.762h4.11c.422 0 .762-.341.762-.762v-4.11c0-.42-.34-.761-.762-.761zM19.196 7.082h-4.11a.761.761 0 0 0-.761.761v4.11c0 .42.34.762.762.762h4.11c.42 0 .76-.341.76-.762v-4.11c0-.42-.34-.761-.76-.761zM4.872 14.163H.762a.762.762 0 0 0-.762.762v4.11c0 .42.34.762.762.762h4.11c.42 0 .761-.342.761-.762v-4.11c0-.42-.34-.762-.761-.762zM11.953 14.163h-4.11a.762.762 0 0 0-.761.762v4.11c0 .42.341.762.761.762h4.11a.762.762 0 0 0 .762-.762v-4.11c0-.42-.34-.762-.762-.762zM19.196 14.163h-4.11a.762.762 0 0 0-.761.762v4.11c0 .42.34.762.762.762h4.11c.42 0 .76-.342.76-.762v-4.11c0-.42-.34-.762-.76-.762z"/>
    </symbol>
</svg>
