<svg id="Layer_1" data-name="Layer 1" xmlns="http://www.w3.org/2000/svg" viewBox="0 0 155.81 57.04"><defs><style>.cls-1{fill:#313d4b;}.cls-2{fill:#f28d1b;}</style></defs><title>mossebo_market_logo_en</title><path class="cls-1" d="M42.13,8.41a8.25,8.25,0,0,0-6.2,2.26q-2.19,2.26-2.19,6.52v5.9a9.18,9.18,0,0,0,2.14,6.2q2.15,2.49,6.34,2.49t6.27-2.47a9.32,9.32,0,0,0,2.07-6.22v-5.9a9,9,0,0,0-2.21-6.43A8.13,8.13,0,0,0,42.13,8.41Zm5.19,15.13A5.28,5.28,0,0,1,46,27.37a4.94,4.94,0,0,1-3.74,1.41A4.88,4.88,0,0,1,37,23.54V17.19q0-5.69,5.23-5.69t5.1,5.69Z"/><path class="cls-1" d="M86.13,19.51c-1.19-.47-2.38-.91-3.59-1.29a16,16,0,0,1-3.24-1.44,2.58,2.58,0,0,1-1.45-2.32A2.69,2.69,0,0,1,79,12.24a5.8,5.8,0,0,1,3.5-.87,6,6,0,0,1,3.79,1.12l1-2.82-.54-.32A8.22,8.22,0,0,0,85,8.7a10.65,10.65,0,0,0-2.71-.33q-4.09,0-5.93,2a6,6,0,0,0-1.82,4.2,5,5,0,0,0,1.66,3.83,8.48,8.48,0,0,0,3.14,2c1.19.42,2.37.81,3.54,1.18a9.62,9.62,0,0,1,3,1.53,3.12,3.12,0,0,1,1.21,2.59,2.77,2.77,0,0,1-1.42,2.51,6.87,6.87,0,0,1-6.78-.05,3.3,3.3,0,0,1-1.67-2.57L74,25.64a6,6,0,0,0,2.3,4.53A9.3,9.3,0,0,0,82.43,32a8.48,8.48,0,0,0,5.93-1.86,5.71,5.71,0,0,0,2-4.36,6.18,6.18,0,0,0-1.24-4A7.48,7.48,0,0,0,86.13,19.51Z"/><path class="cls-1" d="M102.21,8.5a8.73,8.73,0,0,0-6,2,7.12,7.12,0,0,0-2.28,5.64v9.17q0,6.54,7.85,6.54A13.81,13.81,0,0,0,109,29.76l-1.21-2.64A13,13,0,0,1,101.67,29c-3,0-4.51-1.27-4.51-3.81V22.83l13-.68V16a7.23,7.23,0,0,0-2.1-5.52A8.11,8.11,0,0,0,102.21,8.5Zm4.65,10.79-9.7.49V16.2a4.43,4.43,0,0,1,1.38-3.53,4.87,4.87,0,0,1,3.36-1.21,6,6,0,0,1,3.47,1,3.8,3.8,0,0,1,1.49,3.38Z"/><path class="cls-1" d="M21.11,8.55a14.81,14.81,0,0,0-7.26,2.15A6.9,6.9,0,0,0,8.73,8.59,11.33,11.33,0,0,0,3.11,10l0-1.12H0V31.33H3.25V12.89a9.59,9.59,0,0,1,4.87-1.34,4.49,4.49,0,0,1,3.79,1.65,5.29,5.29,0,0,1,1,3.36V31.33h3.25V15.71a6.56,6.56,0,0,0-.59-2.82l1.4-.67a8.57,8.57,0,0,1,2.34-.63c.54,0,1,0,1.47,0a6,6,0,0,1,1.6.27c1.68.56,2.53,2.13,2.53,4.69V31.33h3.24V15.84a7.42,7.42,0,0,0-1.89-5.23A6.62,6.62,0,0,0,21.11,8.55Z"/><path class="cls-1" d="M66.38,19.51C65.19,19,64,18.6,62.79,18.22a16.38,16.38,0,0,1-3.25-1.44,2.59,2.59,0,0,1-1.44-2.32,2.66,2.66,0,0,1,1.15-2.22,5.78,5.78,0,0,1,3.5-.87,6,6,0,0,1,3.78,1.12l1-2.82L67,9.35a8.22,8.22,0,0,0-1.8-.65,10.7,10.7,0,0,0-2.71-.33c-2.74,0-4.71.65-5.93,2a6,6,0,0,0-1.83,4.2,5.05,5.05,0,0,0,1.67,3.83,8.4,8.4,0,0,0,3.14,2c1.18.42,2.36.81,3.54,1.18a9.45,9.45,0,0,1,3,1.53,3.1,3.1,0,0,1,1.22,2.59,2.77,2.77,0,0,1-1.42,2.51,6.89,6.89,0,0,1-6.79-.05,3.33,3.33,0,0,1-1.67-2.57l-3.15.13a5.94,5.94,0,0,0,2.3,4.53A9.3,9.3,0,0,0,62.68,32a8.48,8.48,0,0,0,5.93-1.86,5.75,5.75,0,0,0,2-4.36,6.18,6.18,0,0,0-1.24-4A7.55,7.55,0,0,0,66.38,19.51Z"/><path class="cls-1" d="M127,9.4l-.17-.06a12.32,12.32,0,0,0-4.57-.79,9.51,9.51,0,0,0-4.82,1.21V0h-3.25V31.33a52.35,52.35,0,0,0,7.17.54,12.93,12.93,0,0,0,6-1.35,6.18,6.18,0,0,0,2-1.52,6.88,6.88,0,0,0,1.55-4.7V15.84Q130.81,11.15,127,9.4Zm-1,18.26a6.55,6.55,0,0,1-3.88,1.16,8.35,8.35,0,0,1-1.29.05,27.08,27.08,0,0,1-3.4-.32V12.89a9.33,9.33,0,0,1,2.88-1.07l2.26-.23A5.07,5.07,0,0,1,126.44,13a4.1,4.1,0,0,1,.37.48,5,5,0,0,1,.8,2.88v8A4,4,0,0,1,126,27.66Z"/><path class="cls-1" d="M149.76,31a2.5,2.5,0,0,0-1.95-1.95V29h-.5a2.5,2.5,0,0,0-2.45,2,2.73,2.73,0,0,0-.05.5,2.5,2.5,0,0,0,2.5,2.5,2.73,2.73,0,0,0,.5,0,2.5,2.5,0,0,0,2-2.45A2.73,2.73,0,0,0,149.76,31Z"/><path class="cls-1" d="M142.76,31a2.5,2.5,0,0,0-2.45-2h-.5v.05A2.5,2.5,0,0,0,137.86,31a2.73,2.73,0,0,0-.05.5,2.5,2.5,0,0,0,2,2.45,2.73,2.73,0,0,0,.5,0,2.5,2.5,0,0,0,2.5-2.5A2.73,2.73,0,0,0,142.76,31Z"/><path class="cls-1" d="M149.61,22l-1.38-.62-.07.09a4.45,4.45,0,0,1-.62.53,5.28,5.28,0,0,1-3.16.92,5.16,5.16,0,0,1-3.85-1.45,5.31,5.31,0,0,1-1.44-3.93v-.3l-3.28-1.49v1.33A9.46,9.46,0,0,0,138,23.45a5.49,5.49,0,0,0,.53.55,6.38,6.38,0,0,0,1.3.95A9.17,9.17,0,0,0,144.38,26a10.25,10.25,0,0,0,3.43-.54A6.61,6.61,0,0,0,150.22,24c.17-.17.34-.34.5-.53a7.4,7.4,0,0,0,.53-.72Z"/><path class="cls-2" d="M152.51,8.18a4.7,4.7,0,0,0-1.2-.18,4.41,4.41,0,0,0-2.08.54A4.49,4.49,0,0,0,151.31,17a4.39,4.39,0,0,0,1.5-.28,4.47,4.47,0,0,0-.3-8.54Z"/><path class="cls-1" d="M.19,56.82V45H7.3v1.41H1.84V50H6.68v1.4H1.84v5.42Z"/><path class="cls-1" d="M16,56.57c-.37.09-.84.18-1.44.28a11.42,11.42,0,0,1-2.06.16,4.35,4.35,0,0,1-1.72-.3,2.74,2.74,0,0,1-1.12-.84A3.4,3.4,0,0,1,9,54.59a7.07,7.07,0,0,1-.18-1.65V48h1.58V52.6a4,4,0,0,0,.51,2.32,2,2,0,0,0,1.72.69h.52l.51-.05.44,0a.78.78,0,0,0,.28-.06V48H16Z"/><path class="cls-1" d="M22,47.79l.47,0,.52.07.46.08.32.08-.27,1.38a6.13,6.13,0,0,0-.63-.17,5.57,5.57,0,0,0-1.11-.09,4.21,4.21,0,0,0-.87.09l-.57.13v7.43H18.69V48.35A11.49,11.49,0,0,1,20.08,48,8.86,8.86,0,0,1,22,47.79Z"/><path class="cls-1" d="M25.37,48.24c.36-.1.85-.19,1.45-.29a11.61,11.61,0,0,1,2.07-.16,4.43,4.43,0,0,1,1.75.3,2.81,2.81,0,0,1,1.12.83,3.31,3.31,0,0,1,.58,1.29,7.67,7.67,0,0,1,.17,1.65v5H30.93V52.2a8,8,0,0,0-.11-1.4,2.27,2.27,0,0,0-.37-.93,1.42,1.42,0,0,0-.68-.52,2.9,2.9,0,0,0-1.05-.16h-.53l-.51,0a2.73,2.73,0,0,0-.45.06l-.28,0v7.46H25.37Z"/><path class="cls-1" d="M35.88,46.38a1,1,0,0,1-.72-.28,1,1,0,0,1-.3-.75,1,1,0,0,1,1-1,1,1,0,0,1,.73.28,1,1,0,0,1,.29.76,1,1,0,0,1-1,1Zm.8,10.44H35.1V48h1.58Z"/><path class="cls-1" d="M40.87,48h3.35v1.33H40.87v4.08a4.76,4.76,0,0,0,.1,1.09,1.59,1.59,0,0,0,.31.68,1,1,0,0,0,.51.35,2.17,2.17,0,0,0,.71.1,3.31,3.31,0,0,0,1.15-.16l.6-.23.31,1.31a5.92,5.92,0,0,1-.84.3,4.67,4.67,0,0,1-1.36.18,4.14,4.14,0,0,1-1.48-.23,2.23,2.23,0,0,1-1-.69,2.93,2.93,0,0,1-.5-1.13,8,8,0,0,1-.14-1.56V45.52l1.58-.28Z"/><path class="cls-1" d="M53.2,56.57c-.37.09-.84.18-1.44.28a11.46,11.46,0,0,1-2.07.16,4.29,4.29,0,0,1-1.71-.3,2.74,2.74,0,0,1-1.12-.84,3.4,3.4,0,0,1-.62-1.28,7.07,7.07,0,0,1-.18-1.65V48h1.58V52.6a4,4,0,0,0,.51,2.32,2,2,0,0,0,1.71.69h.53l.51-.05.44,0a.78.78,0,0,0,.28-.06V48H53.2Z"/><path class="cls-1" d="M59.16,47.79l.47,0,.51.07.47.08.32.08-.28,1.38a5.16,5.16,0,0,0-.62-.17,5.64,5.64,0,0,0-1.11-.09,4.38,4.38,0,0,0-.88.09l-.57.13v7.43H55.89V48.35a12.26,12.26,0,0,1,1.4-.38A8.86,8.86,0,0,1,59.16,47.79Z"/><path class="cls-1" d="M61.86,52.42a5.79,5.79,0,0,1,.34-2.05,4.13,4.13,0,0,1,.91-1.45,3.51,3.51,0,0,1,1.29-.87,4,4,0,0,1,1.49-.29,3.41,3.41,0,0,1,2.74,1.11,5.16,5.16,0,0,1,1,3.39v.27a2.91,2.91,0,0,1,0,.3H63.51a3.3,3.3,0,0,0,.8,2.09,3,3,0,0,0,2.18.71,6.17,6.17,0,0,0,1.4-.14,4.43,4.43,0,0,0,.86-.29L69,56.53a4.62,4.62,0,0,1-1,.32,6.83,6.83,0,0,1-1.64.17,5.27,5.27,0,0,1-2-.34,3.88,3.88,0,0,1-1.38-1,3.8,3.8,0,0,1-.81-1.46A6,6,0,0,1,61.86,52.42Zm6.07-.87a2.66,2.66,0,0,0-.53-1.76,1.85,1.85,0,0,0-1.52-.69,2.06,2.06,0,0,0-1,.21,2.32,2.32,0,0,0-.71.56,2.49,2.49,0,0,0-.45.78,3.47,3.47,0,0,0-.21.9Z"/><path class="cls-1" d="M78.74,47.76a4.43,4.43,0,0,1,1.61.25,2.57,2.57,0,0,1,1.06.69A2.68,2.68,0,0,1,82,49.77a4.94,4.94,0,0,1,.18,1.37v5.53l-.57.09c-.25,0-.52.08-.83.11s-.64.07-1,.09-.71,0-1.07,0a5.42,5.42,0,0,1-1.37-.16,3,3,0,0,1-1.09-.48,2.16,2.16,0,0,1-.72-.88,3,3,0,0,1-.25-1.3,2.5,2.5,0,0,1,.3-1.26,2.42,2.42,0,0,1,.8-.85,3.63,3.63,0,0,1,1.19-.48A6.67,6.67,0,0,1,79,51.45l.5,0,.48.07.4.08.24.05v-.44a3.46,3.46,0,0,0-.09-.78,1.82,1.82,0,0,0-.3-.68,1.63,1.63,0,0,0-.61-.47,2.31,2.31,0,0,0-1-.18,7.83,7.83,0,0,0-1.37.11,4.68,4.68,0,0,0-.88.23l-.18-1.31a4.53,4.53,0,0,1,1-.26A8.27,8.27,0,0,1,78.74,47.76Zm.14,7.92,1,0a4.16,4.16,0,0,0,.72-.1V52.93a2,2,0,0,0-.55-.15,6.22,6.22,0,0,0-.93-.06,6.91,6.91,0,0,0-.76.05,2.48,2.48,0,0,0-.73.22,1.58,1.58,0,0,0-.55.44,1.14,1.14,0,0,0-.22.74,1.27,1.27,0,0,0,.54,1.18A2.85,2.85,0,0,0,78.88,55.68Z"/><path class="cls-1" d="M84.77,48.24c.36-.1.84-.19,1.44-.29a11.81,11.81,0,0,1,2.08-.16,4.47,4.47,0,0,1,1.75.3,2.85,2.85,0,0,1,1.11.83,3.19,3.19,0,0,1,.59,1.29,7.67,7.67,0,0,1,.17,1.65v5H90.33V52.2a8,8,0,0,0-.11-1.4,2.41,2.41,0,0,0-.37-.93,1.42,1.42,0,0,0-.68-.52,2.9,2.9,0,0,0-1-.16h-.53l-.52,0a2.75,2.75,0,0,0-.44.06l-.28,0v7.46H84.77Z"/><path class="cls-1" d="M100.26,43.9l1.58-.27V56.57c-.36.1-.83.2-1.39.3a11.41,11.41,0,0,1-2,.15,4.81,4.81,0,0,1-1.83-.32,3.84,3.84,0,0,1-1.4-.92,4.08,4.08,0,0,1-.89-1.45,5.58,5.58,0,0,1-.32-1.93,6.17,6.17,0,0,1,.27-1.87,4.08,4.08,0,0,1,.77-1.46,3.44,3.44,0,0,1,1.25-1A4,4,0,0,1,98,47.78a4,4,0,0,1,1.35.2,4.52,4.52,0,0,1,.88.39Zm0,6a3.27,3.27,0,0,0-.83-.46,3.11,3.11,0,0,0-1.19-.22,2.5,2.5,0,0,0-1.17.25,2.16,2.16,0,0,0-.79.68,2.92,2.92,0,0,0-.44,1,5.68,5.68,0,0,0-.14,1.27,3.43,3.43,0,0,0,.77,2.39,2.63,2.63,0,0,0,2,.84,8.11,8.11,0,0,0,1.08-.06,4.41,4.41,0,0,0,.67-.13Z"/><path class="cls-1" d="M114.3,43.9l1.58-.27V56.57c-.36.1-.83.2-1.39.3a11.41,11.41,0,0,1-2,.15,4.81,4.81,0,0,1-1.83-.32,3.84,3.84,0,0,1-1.4-.92,4.08,4.08,0,0,1-.89-1.45,5.58,5.58,0,0,1-.31-1.93,6.17,6.17,0,0,1,.26-1.87,4.08,4.08,0,0,1,.77-1.46,3.44,3.44,0,0,1,1.25-1,4,4,0,0,1,1.69-.34,4.1,4.1,0,0,1,1.36.2,4.67,4.67,0,0,1,.87.39Zm0,6a3.27,3.27,0,0,0-.83-.46,3.07,3.07,0,0,0-1.19-.22,2.5,2.5,0,0,0-1.17.25,2.16,2.16,0,0,0-.79.68,2.92,2.92,0,0,0-.44,1,5.68,5.68,0,0,0-.14,1.27,3.43,3.43,0,0,0,.77,2.39,2.63,2.63,0,0,0,2,.84,8.11,8.11,0,0,0,1.08-.06,4.41,4.41,0,0,0,.67-.13Z"/><path class="cls-1" d="M118.13,52.42a5.79,5.79,0,0,1,.34-2.05,4.26,4.26,0,0,1,.9-1.45,3.63,3.63,0,0,1,1.3-.87,4,4,0,0,1,1.49-.29,3.42,3.42,0,0,1,2.74,1.11,5.16,5.16,0,0,1,.95,3.39v.27a2.83,2.83,0,0,1,0,.3h-6a3.3,3.3,0,0,0,.8,2.09,3,3,0,0,0,2.18.71,6.17,6.17,0,0,0,1.4-.14,4.69,4.69,0,0,0,.86-.29l.22,1.33a4.62,4.62,0,0,1-1,.32,6.89,6.89,0,0,1-1.64.17,5.27,5.27,0,0,1-2-.34,4,4,0,0,1-1.39-1,3.91,3.91,0,0,1-.8-1.46A6,6,0,0,1,118.13,52.42Zm6.07-.87a2.71,2.71,0,0,0-.53-1.76,1.86,1.86,0,0,0-1.53-.69,2.12,2.12,0,0,0-1,.21,2.4,2.4,0,0,0-.7.56,2.49,2.49,0,0,0-.45.78,3.47,3.47,0,0,0-.21.9Z"/><path class="cls-1" d="M132,57a4.74,4.74,0,0,1-1.88-.34,3.67,3.67,0,0,1-1.36-1,3.93,3.93,0,0,1-.83-1.45,6.06,6.06,0,0,1-.27-1.86,5.56,5.56,0,0,1,.3-1.87,4.41,4.41,0,0,1,.84-1.47,3.64,3.64,0,0,1,1.34-1,4.32,4.32,0,0,1,1.76-.35,6.72,6.72,0,0,1,1.18.1,6,6,0,0,1,1.14.32l-.35,1.35a3.24,3.24,0,0,0-.83-.27,4.48,4.48,0,0,0-1-.11,2.49,2.49,0,0,0-2,.84,3.65,3.65,0,0,0-.71,2.43,5,5,0,0,0,.16,1.31,2.88,2.88,0,0,0,.51,1,2.26,2.26,0,0,0,.89.65,3.52,3.52,0,0,0,1.33.23,5,5,0,0,0,1.14-.12,4.26,4.26,0,0,0,.8-.25l.22,1.32a1.48,1.48,0,0,1-.39.16,5.52,5.52,0,0,1-.58.14l-.69.1A5.69,5.69,0,0,1,132,57Z"/><path class="cls-1" d="M143.71,52.4a5.41,5.41,0,0,1-.31,1.9,4.29,4.29,0,0,1-.86,1.47,3.85,3.85,0,0,1-1.31.94,4.39,4.39,0,0,1-3.34,0,3.75,3.75,0,0,1-1.31-.94,4.29,4.29,0,0,1-.86-1.47,5.95,5.95,0,0,1,0-3.79,4.24,4.24,0,0,1,.86-1.48,3.75,3.75,0,0,1,1.31-.94,4.39,4.39,0,0,1,3.34,0,3.85,3.85,0,0,1,1.31.94,4.24,4.24,0,0,1,.86,1.48A5.43,5.43,0,0,1,143.71,52.4Zm-1.65,0a3.83,3.83,0,0,0-.67-2.37,2.34,2.34,0,0,0-3.66,0,4.53,4.53,0,0,0,0,4.74,2.34,2.34,0,0,0,3.66,0A3.83,3.83,0,0,0,142.06,52.4Z"/><path class="cls-1" d="M149.2,47.79l.47,0,.52.07.47.08.31.08-.27,1.38a5.16,5.16,0,0,0-.62-.17,5.64,5.64,0,0,0-1.11-.09,4.31,4.31,0,0,0-.88.09l-.57.13v7.43h-1.58V48.35a12.63,12.63,0,0,1,1.39-.38A8.92,8.92,0,0,1,149.2,47.79Z"/></svg>