<svg id="Layer_1" data-name="Layer 1" xmlns="http://www.w3.org/2000/svg" viewBox="0 0 155.81 62.52"><defs><style>.cls-1{fill:#313d4b;}.cls-2{fill:#f28d1b;}</style></defs><title>mossebo_market_logo_ru</title><path class="cls-1" d="M42.13,8.41a8.25,8.25,0,0,0-6.2,2.26q-2.19,2.26-2.19,6.52v5.9a9.18,9.18,0,0,0,2.14,6.2q2.15,2.49,6.34,2.49t6.27-2.47a9.32,9.32,0,0,0,2.07-6.22v-5.9a9,9,0,0,0-2.21-6.43A8.13,8.13,0,0,0,42.13,8.41Zm5.19,15.13A5.28,5.28,0,0,1,46,27.37a4.94,4.94,0,0,1-3.74,1.41A4.88,4.88,0,0,1,37,23.54V17.19q0-5.69,5.23-5.69t5.1,5.69Z"/><path class="cls-1" d="M86.13,19.51c-1.19-.47-2.38-.91-3.59-1.29a16,16,0,0,1-3.24-1.44,2.58,2.58,0,0,1-1.45-2.32A2.69,2.69,0,0,1,79,12.24a5.8,5.8,0,0,1,3.5-.87,6,6,0,0,1,3.79,1.12l1-2.82-.54-.32A8.22,8.22,0,0,0,85,8.7a10.65,10.65,0,0,0-2.71-.33q-4.09,0-5.93,2a6,6,0,0,0-1.82,4.2,5,5,0,0,0,1.66,3.83,8.48,8.48,0,0,0,3.14,2c1.19.42,2.37.81,3.54,1.18a9.62,9.62,0,0,1,3,1.53,3.12,3.12,0,0,1,1.21,2.59,2.77,2.77,0,0,1-1.42,2.51,6.87,6.87,0,0,1-6.78-.05,3.3,3.3,0,0,1-1.67-2.57L74,25.64a6,6,0,0,0,2.3,4.53A9.3,9.3,0,0,0,82.43,32a8.48,8.48,0,0,0,5.93-1.86,5.71,5.71,0,0,0,2-4.36,6.18,6.18,0,0,0-1.24-4A7.48,7.48,0,0,0,86.13,19.51Z"/><path class="cls-1" d="M102.21,8.5a8.73,8.73,0,0,0-6,2,7.12,7.12,0,0,0-2.28,5.64v9.17q0,6.54,7.85,6.54A13.81,13.81,0,0,0,109,29.76l-1.21-2.64A13,13,0,0,1,101.67,29c-3,0-4.51-1.27-4.51-3.81V22.83l13-.68V16a7.23,7.23,0,0,0-2.1-5.52A8.11,8.11,0,0,0,102.21,8.5Zm4.65,10.79-9.7.49V16.2a4.43,4.43,0,0,1,1.38-3.53,4.87,4.87,0,0,1,3.36-1.21,6,6,0,0,1,3.47,1,3.8,3.8,0,0,1,1.49,3.38Z"/><path class="cls-1" d="M21.11,8.55a14.81,14.81,0,0,0-7.26,2.15A6.9,6.9,0,0,0,8.73,8.59,11.33,11.33,0,0,0,3.11,10l0-1.12H0V31.33H3.25V12.89a9.59,9.59,0,0,1,4.87-1.34,4.49,4.49,0,0,1,3.79,1.65,5.29,5.29,0,0,1,1,3.36V31.33h3.25V15.71a6.56,6.56,0,0,0-.59-2.82l1.4-.67a8.57,8.57,0,0,1,2.34-.63c.54,0,1,0,1.47,0a6,6,0,0,1,1.6.27c1.68.56,2.53,2.13,2.53,4.69V31.33h3.24V15.84a7.42,7.42,0,0,0-1.89-5.23A6.62,6.62,0,0,0,21.11,8.55Z"/><path class="cls-1" d="M66.38,19.51C65.19,19,64,18.6,62.79,18.22a16.38,16.38,0,0,1-3.25-1.44,2.59,2.59,0,0,1-1.44-2.32,2.66,2.66,0,0,1,1.15-2.22,5.78,5.78,0,0,1,3.5-.87,6,6,0,0,1,3.78,1.12l1-2.82L67,9.35a8.22,8.22,0,0,0-1.8-.65,10.7,10.7,0,0,0-2.71-.33c-2.74,0-4.71.65-5.93,2a6,6,0,0,0-1.83,4.2,5.05,5.05,0,0,0,1.67,3.83,8.4,8.4,0,0,0,3.14,2c1.18.42,2.36.81,3.54,1.18a9.45,9.45,0,0,1,3,1.53,3.1,3.1,0,0,1,1.22,2.59,2.77,2.77,0,0,1-1.42,2.51,6.89,6.89,0,0,1-6.79-.05,3.33,3.33,0,0,1-1.67-2.57l-3.15.13a5.94,5.94,0,0,0,2.3,4.53A9.3,9.3,0,0,0,62.68,32a8.48,8.48,0,0,0,5.93-1.86,5.75,5.75,0,0,0,2-4.36,6.18,6.18,0,0,0-1.24-4A7.55,7.55,0,0,0,66.38,19.51Z"/><path class="cls-1" d="M127,9.4l-.17-.06a12.32,12.32,0,0,0-4.57-.79,9.51,9.51,0,0,0-4.82,1.21V0h-3.25V31.33a52.35,52.35,0,0,0,7.17.54,12.93,12.93,0,0,0,6-1.35,6.18,6.18,0,0,0,2-1.52,6.88,6.88,0,0,0,1.55-4.7V15.84Q130.81,11.15,127,9.4Zm-1,18.26a6.55,6.55,0,0,1-3.88,1.16,8.35,8.35,0,0,1-1.29.05,27.08,27.08,0,0,1-3.4-.32V12.89a9.33,9.33,0,0,1,2.88-1.07l2.26-.23A5.07,5.07,0,0,1,126.44,13a4.1,4.1,0,0,1,.37.48,5,5,0,0,1,.8,2.88v8A4,4,0,0,1,126,27.66Z"/><path class="cls-1" d="M149.76,31a2.5,2.5,0,0,0-1.95-1.95V29h-.5a2.5,2.5,0,0,0-2.45,2,2.73,2.73,0,0,0-.05.5,2.5,2.5,0,0,0,2.5,2.5,2.73,2.73,0,0,0,.5,0,2.5,2.5,0,0,0,2-2.45A2.73,2.73,0,0,0,149.76,31Z"/><path class="cls-1" d="M142.76,31a2.5,2.5,0,0,0-2.45-2h-.5v.05A2.5,2.5,0,0,0,137.86,31a2.73,2.73,0,0,0-.05.5,2.5,2.5,0,0,0,2,2.45,2.73,2.73,0,0,0,.5,0,2.5,2.5,0,0,0,2.5-2.5A2.73,2.73,0,0,0,142.76,31Z"/><path class="cls-1" d="M149.61,22l-1.38-.62-.07.09a4.45,4.45,0,0,1-.62.53,5.28,5.28,0,0,1-3.16.92,5.16,5.16,0,0,1-3.85-1.45,5.31,5.31,0,0,1-1.44-3.93v-.3l-3.28-1.49v1.33A9.46,9.46,0,0,0,138,23.45a5.49,5.49,0,0,0,.53.55,6.38,6.38,0,0,0,1.3.95A9.17,9.17,0,0,0,144.38,26a10.25,10.25,0,0,0,3.43-.54A6.61,6.61,0,0,0,150.22,24c.17-.17.34-.34.5-.53a7.4,7.4,0,0,0,.53-.72Z"/><path class="cls-2" d="M152.51,8.18a4.7,4.7,0,0,0-1.2-.18,4.41,4.41,0,0,0-2.08.54A4.49,4.49,0,0,0,151.31,17a4.39,4.39,0,0,0,1.5-.28,4.47,4.47,0,0,0-.3-8.54Z"/><path class="cls-1" d="M6.67,56.9c-.14-.32-.31-.73-.53-1.22l-.71-1.6-.81-1.77-.81-1.72c-.26-.54-.49-1-.71-1.45s-.4-.75-.53-1c-.15,1.57-.27,3.28-.36,5.11S2,57,2,58.82H.07q.07-1.8.18-3.63c.06-1.22.14-2.42.23-3.6s.18-2.33.28-3.45S1,46,1.09,45h1.7c.36.59.74,1.28,1.16,2.08s.82,1.64,1.24,2.51S6,51.3,6.39,52.17s.74,1.67,1.06,2.39l1.06-2.39c.38-.87.78-1.75,1.2-2.62S10.53,47.84,11,47s.8-1.49,1.16-2.08h1.7q.67,6.7,1,13.86h-1.9q-.11-2.8-.24-5.55c-.1-1.83-.22-3.54-.36-5.11-.14.23-.31.55-.53,1s-.46.91-.71,1.45-.53,1.11-.81,1.72-.56,1.2-.81,1.77-.49,1.11-.71,1.6-.4.9-.53,1.22Z"/><path class="cls-1" d="M17.17,53.64a6.58,6.58,0,0,1,.4-2.41,4.87,4.87,0,0,1,1.06-1.71,4.33,4.33,0,0,1,1.52-1,4.67,4.67,0,0,1,1.76-.34,4,4,0,0,1,3.22,1.31,6.05,6.05,0,0,1,1.12,4v.31c0,.13,0,.24,0,.35H19.11a3.79,3.79,0,0,0,.94,2.46,3.43,3.43,0,0,0,2.56.84,7,7,0,0,0,1.65-.17,5.67,5.67,0,0,0,1-.33l.26,1.56a5.54,5.54,0,0,1-1.19.38,8.67,8.67,0,0,1-1.93.2,6.17,6.17,0,0,1-2.35-.41,4.29,4.29,0,0,1-1.63-1.13,4.47,4.47,0,0,1-.95-1.71A7.11,7.11,0,0,1,17.17,53.64Zm7.14-1a3.16,3.16,0,0,0-.63-2.07,2.18,2.18,0,0,0-1.79-.81,2.38,2.38,0,0,0-1.13.25,2.55,2.55,0,0,0-.83.65,2.8,2.8,0,0,0-.53.92,4.41,4.41,0,0,0-.25,1.06Z"/><path class="cls-1" d="M30.61,49.62a4.46,4.46,0,0,1,1.45-.77,5.1,5.1,0,0,1,1.59-.27A4.19,4.19,0,0,1,37,50a5.78,5.78,0,0,1,1.15,3.81,7.37,7.37,0,0,1-.28,2,5,5,0,0,1-.87,1.7,4.34,4.34,0,0,1-1.49,1.18,4.89,4.89,0,0,1-2.14.44,4.77,4.77,0,0,1-2.36-.52,3.91,3.91,0,0,1-1.49-1.42,5.9,5.9,0,0,1-.77-2.1,13.8,13.8,0,0,1-.22-2.54,19.37,19.37,0,0,1,.25-3.24,7.63,7.63,0,0,1,.91-2.64,5.51,5.51,0,0,1,1.83-1.89,7.41,7.41,0,0,1,3-1l1-.13.72-.09.57-.09.54-.11.2,1.68a1.5,1.5,0,0,1-.29.06l-.42.06-.72.1L35,45.34a5.23,5.23,0,0,0-3,1.2A4.77,4.77,0,0,0,30.61,49.62Zm-.12,3.18a11.2,11.2,0,0,0,.13,1.78,4.67,4.67,0,0,0,.46,1.48,2.57,2.57,0,0,0,.89,1,2.52,2.52,0,0,0,1.44.37,2.77,2.77,0,0,0,1.3-.29,2.48,2.48,0,0,0,.88-.79,3.66,3.66,0,0,0,.5-1.17,6.52,6.52,0,0,0,.16-1.43,7.2,7.2,0,0,0-.13-1.32,3.23,3.23,0,0,0-.47-1.14,2.52,2.52,0,0,0-.91-.8,3.06,3.06,0,0,0-1.43-.3,3.75,3.75,0,0,0-1.61.36,3.19,3.19,0,0,0-1.19.88,5.27,5.27,0,0,0,0,.62Z"/><path class="cls-1" d="M40.25,53.64a6.58,6.58,0,0,1,.4-2.41,4.87,4.87,0,0,1,1.06-1.71,4.33,4.33,0,0,1,1.52-1A4.67,4.67,0,0,1,45,48.16a4,4,0,0,1,3.22,1.31,6.05,6.05,0,0,1,1.12,4v.31c0,.13,0,.24,0,.35H42.19a3.79,3.79,0,0,0,.94,2.46,3.43,3.43,0,0,0,2.56.84,7,7,0,0,0,1.65-.17,5.67,5.67,0,0,0,1-.33l.26,1.56a5.54,5.54,0,0,1-1.19.38,8.67,8.67,0,0,1-1.93.2,6.17,6.17,0,0,1-2.35-.41,4.29,4.29,0,0,1-1.63-1.13,4.47,4.47,0,0,1-.95-1.71A7.11,7.11,0,0,1,40.25,53.64Zm7.14-1a3.16,3.16,0,0,0-.63-2.07A2.18,2.18,0,0,0,45,49.74a2.38,2.38,0,0,0-1.13.25,2.55,2.55,0,0,0-.83.65,2.8,2.8,0,0,0-.53.92,4.41,4.41,0,0,0-.25,1.06Z"/><path class="cls-1" d="M55.63,50q0,.66,0,1.41c0,.5-.06,1-.11,1.5s-.13,1-.22,1.48a12.4,12.4,0,0,1-.36,1.37,6.57,6.57,0,0,1-.55,1.2,4.18,4.18,0,0,1-1.93,1.71,4.72,4.72,0,0,1-1.5.37l-.26-1.56a3.09,3.09,0,0,0,1.55-.74,4,4,0,0,0,.91-1.32,6.64,6.64,0,0,0,.44-1.54c.09-.57.16-1.17.2-1.79s.06-1.24.07-1.87,0-1.22,0-1.78h6.92v10.4H58.91V50Z"/><path class="cls-1" d="M64,58.6V48.42h1.86v4a4.28,4.28,0,0,1,.43-.08l.58-.08a6.26,6.26,0,0,1,.65-.06l.64,0a6.54,6.54,0,0,1,1.62.19,4,4,0,0,1,1.33.6A3,3,0,0,1,72,54a3.38,3.38,0,0,1,.34,1.55,3.68,3.68,0,0,1-.32,1.6,2.83,2.83,0,0,1-.92,1.08,4.12,4.12,0,0,1-1.43.61,8.15,8.15,0,0,1-1.85.19,18,18,0,0,1-2-.11A14.48,14.48,0,0,1,64,58.6Zm3.94-1.08a3.28,3.28,0,0,0,1.86-.46,1.67,1.67,0,0,0,.68-1.48,1.79,1.79,0,0,0-.2-.86,1.73,1.73,0,0,0-.55-.59,2.67,2.67,0,0,0-.81-.34,4.46,4.46,0,0,0-1-.11l-1.11,0a4.85,4.85,0,0,0-1,.13v3.58l.36,0,.53,0,.6,0Z"/><path class="cls-1" d="M87.89,48.42v10.4h-1.8V50.9c-.4.51-.84,1.1-1.32,1.78s-1,1.38-1.44,2.11-.94,1.44-1.38,2.15-.82,1.33-1.14,1.88H79.15V48.42H81V55.9c.34-.57.74-1.2,1.18-1.89s.89-1.37,1.37-2,.94-1.32,1.42-1.94a20.79,20.79,0,0,1,1.33-1.61Z"/><path class="cls-1" d="M94.43,57.3h1.12a9.45,9.45,0,0,0,1-2,12.42,12.42,0,0,0,.59-2.11,18.26,18.26,0,0,0,.26-2.28c0-.79.06-1.63.08-2.51h6.82V57.3h1.4v4.42H104v-2.9h-7.8v2.9H94.43Zm8.06,0V50H99.23c0,.63,0,1.26-.1,1.89a17,17,0,0,1-.27,1.88,10.44,10.44,0,0,1-.5,1.82,11,11,0,0,1-.83,1.73Z"/><path class="cls-1" d="M107.19,53.64a6.58,6.58,0,0,1,.4-2.41,4.87,4.87,0,0,1,1.06-1.71,4.33,4.33,0,0,1,1.52-1,4.67,4.67,0,0,1,1.76-.34,4,4,0,0,1,3.22,1.31,6.05,6.05,0,0,1,1.12,4v.31c0,.13,0,.24,0,.35h-7.12a3.79,3.79,0,0,0,.94,2.46,3.43,3.43,0,0,0,2.56.84,7,7,0,0,0,1.65-.17,5.67,5.67,0,0,0,1-.33l.26,1.56a5.54,5.54,0,0,1-1.19.38,8.67,8.67,0,0,1-1.93.2,6.17,6.17,0,0,1-2.35-.41,4.29,4.29,0,0,1-1.63-1.13,4.47,4.47,0,0,1-1-1.71A7.11,7.11,0,0,1,107.19,53.64Zm7.14-1a3.16,3.16,0,0,0-.63-2.07,2.18,2.18,0,0,0-1.79-.81,2.38,2.38,0,0,0-1.13.25,2.55,2.55,0,0,0-.83.65,2.8,2.8,0,0,0-.53.92,4.41,4.41,0,0,0-.25,1.06Z"/><path class="cls-1" d="M122.74,53.16a11.88,11.88,0,0,1,1.35,1.11c.48.45.94.93,1.4,1.45s.9,1.05,1.29,1.59a16.36,16.36,0,0,1,1,1.51h-2.2a14.75,14.75,0,0,0-1-1.39c-.39-.47-.8-.93-1.22-1.37s-.86-.85-1.3-1.22a13.56,13.56,0,0,0-1.24-.94v4.92H119V48.42h1.86v4.46l1.1-1.07,1.25-1.24c.41-.42.81-.82,1.16-1.2s.66-.7.88-.95h2.16c-.29.32-.63.68-1,1.09l-1.23,1.25c-.41.43-.83.85-1.25,1.27S123.08,52.83,122.74,53.16Z"/><path class="cls-1" d="M138.28,53.62a6.58,6.58,0,0,1-.35,2.24,5.15,5.15,0,0,1-1,1.72,4.45,4.45,0,0,1-1.56,1.11,5.1,5.1,0,0,1-3.91,0,4.41,4.41,0,0,1-1.55-1.11,5,5,0,0,1-1-1.72,7.12,7.12,0,0,1,0-4.47,5,5,0,0,1,1-1.73,4.41,4.41,0,0,1,1.55-1.11,5.1,5.1,0,0,1,3.91,0,4.45,4.45,0,0,1,1.56,1.11,5.19,5.19,0,0,1,1,1.73A6.6,6.6,0,0,1,138.28,53.62Zm-1.93,0a4.53,4.53,0,0,0-.79-2.79,2.76,2.76,0,0,0-4.3,0,5.32,5.32,0,0,0,0,5.58,2.76,2.76,0,0,0,4.3,0A4.53,4.53,0,0,0,136.35,53.62Z"/><path class="cls-1" d="M150.07,53.64a7.55,7.55,0,0,1-.31,2.18,5.13,5.13,0,0,1-.91,1.72,4.21,4.21,0,0,1-1.48,1.12,4.61,4.61,0,0,1-2,.4,4.79,4.79,0,0,1-1.59-.24,4.48,4.48,0,0,1-1-.46v4.16h-1.86V48.74c.44-.11,1-.22,1.65-.35a12,12,0,0,1,2.29-.19,5.93,5.93,0,0,1,2.16.38,4.6,4.6,0,0,1,1.64,1.08,4.93,4.93,0,0,1,1,1.71A6.71,6.71,0,0,1,150.07,53.64Zm-1.95,0a4,4,0,0,0-.89-2.8,3.15,3.15,0,0,0-2.41-1,10.87,10.87,0,0,0-1.3.06,5.37,5.37,0,0,0-.75.14v6.56a3.56,3.56,0,0,0,1,.54,3.8,3.8,0,0,0,1.41.26,3,3,0,0,0,1.37-.29,2.56,2.56,0,0,0,.93-.8,3.44,3.44,0,0,0,.52-1.2A7,7,0,0,0,148.12,53.64Z"/></svg>